<?xml version="1.0" encoding="UTF-8" standalone="no"?>
<!-- Created with Inkscape (http://www.inkscape.org/) -->

<svg
   xmlns:dc="http://purl.org/dc/elements/1.1/"
   xmlns:cc="http://creativecommons.org/ns#"
   xmlns:rdf="http://www.w3.org/1999/02/22-rdf-syntax-ns#"
   xmlns:svg="http://www.w3.org/2000/svg"
   xmlns="http://www.w3.org/2000/svg"
   xmlns:sodipodi="http://sodipodi.sourceforge.net/DTD/sodipodi-0.dtd"
   xmlns:inkscape="http://www.inkscape.org/namespaces/inkscape"
   width="500"
   height="500"
   id="svg2"
   version="1.1"
   inkscape:version="0.48.2 r9819"
   sodipodi:docname="asteroid1.svg">
  <defs
     id="defs4" />
  <sodipodi:namedview
     id="base"
     pagecolor="#ffffff"
     bordercolor="#666666"
     borderopacity="1.0"
     inkscape:pageopacity="0.0"
     inkscape:pageshadow="2"
     inkscape:zoom="1.979899"
     inkscape:cx="-13.484955"
     inkscape:cy="459.48389"
     inkscape:document-units="px"
     inkscape:current-layer="layer3"
     showgrid="false"
     inkscape:window-width="1280"
     inkscape:window-height="962"
     inkscape:window-x="-8"
     inkscape:window-y="-8"
     inkscape:window-maximized="1" />
  <metadata
     id="metadata7">
    <rdf:RDF>
      <cc:Work
         rdf:about="">
        <dc:format>image/svg+xml</dc:format>
        <dc:type
           rdf:resource="http://purl.org/dc/dcmitype/StillImage" />
        <dc:title />
      </cc:Work>
    </rdf:RDF>
  </metadata>
  <g
     inkscape:label="Layer 1"
     inkscape:groupmode="layer"
     id="layer1"
     transform="translate(0,-552.36217)">
    <path
       style="fill:#646464;fill-opacity:1;stroke:none"
       d="m -46.962611,493.38155 29.43925,-14.5631 25.23365,-1.45631 L 46.96263,486.1 66.58879,513.7699 75,545.80874 l -14.673022,35.40609 -13.060179,20.33788 -26.93969,25.80946 -33.64487,-1.4563 -26.63551,-7.2816 -22.429906,-23.301 -9.564063,-33.94235 -0.249021,-31.59159 17.25005,-14.77359 z"
       id="path2985"
       inkscape:connector-curvature="0"
       sodipodi:nodetypes="cccccccccccccccc" />
  </g>
  <g
     inkscape:groupmode="layer"
     id="layer3"
     inkscape:label="skadu">
    <path
       style="fill:#42424a;fill-opacity:1;stroke:none"
       d="m -17.987211,-73.43072 -5.32808,22.52616 -3.96508,20.46662 6.07153,5.02012 4.08899,10.16895 -0.86736,13.51569 -0.37173,-11.07 -4.70853,-10.68383 -7.55844,-4.24779 -5.32808,1.67338 -0.24782,7.07965 -6.19545,5.14883 -0.61954,9.91151 5.94762,2.18825 -1.11518,5.02011 5.45199,4.37652 2.23036,21.23895 14.00171,10.42639 13.01043,5.40627 14.37343,13.90186 9.41708,16.21884 -33.5793,-1.02977 -26.76433,-7.46581 -22.303603,-23.29848 -10.1523,-32.330587 0.859133,-33.703243 16.640375,-14.67786 7.521855,-21.36398 z"
       id="path3809"
       inkscape:connector-curvature="0"
       sodipodi:nodetypes="ccccccccccccccccccccccccccccc" />
    <path
       style="fill:#42424a;fill-opacity:1;stroke:none"
       d="m 20.502339,-33.5862 -1.40187,4.1869 c 0,0 -1.83995,10.46722 -1.83995,10.83131 0,0.36407 1.31425,5.82524 1.31425,5.82524 l 4.29322,3.18568 -5.51986,-1.91141 -2.36565,-5.09709 0.43809,-12.37863 7.79789,-7.64564 z"
       id="path3811"
       inkscape:connector-curvature="0" />
  </g>
  <g
     inkscape:groupmode="layer"
     id="layer2"
     inkscape:label="gate">
    <path
       style="fill:#414346;fill-opacity:1;stroke:none"
       d="m 44.816481,28.547773 -9.28738,6.00728 -4.90655,-2.3665 2.27804,-4.36893 5.78271,-5.46118 8.93692,-2.3665 c 0,0 2.45327,3.09466 1.40187,4.36894 -1.0514,1.27427 -4.20561,4.18689 -4.20561,4.18689 z"
       id="path3757"
       inkscape:connector-curvature="0" />
    <path
       style="fill:#222824;fill-opacity:1;stroke:none"
       d="m -7.993381,63.74749 -11.74066,1.27427 c 0,0 -6.30841,-1.45631 -6.48365,-2.18447 -0.17523,-0.72815 -0.17523,-4.00485 -0.17523,-4.00485 0,0 4.38084,-0.54612 5.08178,-0.54612 0.70093,0 9.11214,0 9.81308,0 0.70093,0 7.88551,2.36651 7.88551,2.36651 l -1.40187,2.73058 z"
       id="path3759"
       inkscape:connector-curvature="0" />
    <path
       style="fill:#323e3a;fill-opacity:1;stroke:none"
       d="m 59.1211,-35.0996 4.73131,15.4733 0.87617,10.37621 -2.97898,10.19418 c 0,0 -2.97897,-2.73058 -3.1542,-3.45874 C 58.42016,-3.2428 56.66782,-19.6263 56.66782,-19.6263 l -3.50467,-17.29369 3.15421,-8.73787 2.80374,5.27914 z"
       id="path3761"
       inkscape:connector-curvature="0" />
    <path
       style="fill:#2d2b3b;fill-opacity:1;stroke:none"
       d="m 37.04166,-28.00009 2.45327,5.82525 -2.10281,8.55583 -8.41122,3.45873 c 0,0 -7.710271,-4.55097 -7.710271,-5.27913 0,-0.72815 1.22663,-9.83009 1.40186,-10.74029 0.17524,-0.91019 3.504681,-8.55583 4.380851,-8.55583 0.87617,0 9.98832,6.73544 9.98832,6.73544 z"
       id="path3763"
       inkscape:connector-curvature="0" />
    <path
       style="fill:#2d313b;fill-opacity:1;stroke:none"
       d="m -33.402271,-21.44668 7.18457,3.64076 c 0,0 1.92758,9.10196 1.05141,10.55826 -0.87616,1.45631 -2.80374,7.64564 -4.73131,7.64564 -1.92757,0 -13.31775,-4.1869 -13.31775,-4.1869 l 0.5257,-9.83009 z"
       id="path3765"
       inkscape:connector-curvature="0" />
    <path
       style="fill:#22221e;fill-opacity:1;stroke:none"
       d="m -14.301801,-64.95398 7.71027,-3.27669 5.25702,2.00242 -3.32944,2.00243 c 0,0 -4.55608,0.72815 -5.25701,1.09224 -0.70094,0.36407 -8.41122,0.36407 -7.71029,0.18204 0.70094,-0.18204 3.32945,-2.00244 3.32945,-2.00244 z"
       id="path3767"
       inkscape:connector-curvature="0" />
    <path
       style="fill:#1f282d;fill-opacity:1;stroke:none"
       d="m -38.308811,-54.94184 5.43224,-0.54611 -2.27804,2.91262 -5.95794,4.36893 c 0,0 -3.50468,-1.45631 -3.32944,-2.3665 0.17524,-0.9102 6.13318,-4.36894 6.13318,-4.36894 z"
       id="path3769"
       inkscape:connector-curvature="0" />
  </g>
</svg>
