<?xml version="1.0" encoding="UTF-8" standalone="no"?>
<!-- Created with Inkscape (http://www.inkscape.org/) -->

<svg
   xmlns:osb="http://www.openswatchbook.org/uri/2009/osb"
   xmlns:dc="http://purl.org/dc/elements/1.1/"
   xmlns:cc="http://creativecommons.org/ns#"
   xmlns:rdf="http://www.w3.org/1999/02/22-rdf-syntax-ns#"
   xmlns:svg="http://www.w3.org/2000/svg"
   xmlns="http://www.w3.org/2000/svg"
   xmlns:xlink="http://www.w3.org/1999/xlink"
   xmlns:sodipodi="http://sodipodi.sourceforge.net/DTD/sodipodi-0.dtd"
   xmlns:inkscape="http://www.inkscape.org/namespaces/inkscape"
   width="500"
   height="500"
   id="svg6100"
   version="1.1"
   inkscape:version="0.48.2 r9819"
   sodipodi:docname="basic_planet.svg">
  <defs
     id="defs6102">
    <linearGradient
       id="linearGradient6748"
       osb:paint="solid">
      <stop
         style="stop-color:#000000;stop-opacity:1;"
         offset="0"
         id="stop6750" />
    </linearGradient>
    <inkscape:perspective
       sodipodi:type="inkscape:persp3d"
       inkscape:vp_x="622.85714 : 454.75252 : 1"
       inkscape:vp_y="0 : 1000 : 0"
       inkscape:vp_z="-638.76266 : 894.75252 : 1"
       inkscape:persp3d-origin="372.04724 : 350.78739 : 1"
       id="perspective6110" />
    <linearGradient
       inkscape:collect="always"
       xlink:href="#linearGradient6748"
       id="linearGradient6752"
       x1="101.59647"
       y1="492.73767"
       x2="625.71338"
       y2="492.73767"
       gradientUnits="userSpaceOnUse" />
  </defs>
  <sodipodi:namedview
     id="base"
     pagecolor="#ffffff"
     bordercolor="#666666"
     borderopacity="1.0"
     inkscape:pageopacity="0.0"
     inkscape:pageshadow="2"
     inkscape:zoom="1.979899"
     inkscape:cx="-94.31809"
     inkscape:cy="470.17721"
     inkscape:document-units="px"
     inkscape:current-layer="layer2"
     showgrid="false"
     inkscape:window-width="1280"
     inkscape:window-height="962"
     inkscape:window-x="-8"
     inkscape:window-y="-8"
     inkscape:window-maximized="1" />
  <metadata
     id="metadata6105">
    <rdf:RDF>
      <cc:Work
         rdf:about="">
        <dc:format>image/svg+xml</dc:format>
        <dc:type
           rdf:resource="http://purl.org/dc/dcmitype/StillImage" />
        <dc:title></dc:title>
      </cc:Work>
    </rdf:RDF>
  </metadata>
  <g
     inkscape:groupmode="layer"
     id="layer8"
     inkscape:label="swart12"
     style="display:inline">
    <rect
       style="opacity:0.98000003999999996;fill:#00e700;fill-opacity:0;fill-rule:nonzero;stroke:none"
       id="rect6820"
       width="1194.0004"
       height="955.60431"
       x="-524.26917"
       y="-452.57385" />
  </g>
  <g
     inkscape:label="Layer 1"
     inkscape:groupmode="layer"
     id="layer1"
     transform="translate(0,-552.36218)"
     style="display:inline">
    <path
       style="fill:#22222b;fill-opacity:1;stroke:none"
       d="M -92.705573,636.96624 -109.37309,611.20735 -119.47462,579.89262 -122,551.10327 l 4.04061,-33.84011 13.65737,-30.30458 17.677667,-23.73858 24.243661,-18.18275 29.294424,-10.10152 31.314729,-7.07107 30.304579,5.55584 31.31473,12.12183 25.25381,17.67767 19.1929,24.74873 10.10152,18.18275 3.53554,12.62691 6.06091,31.8198 -8.08122,48.9924 -17.17259,30.30458 c 0,0 -8.08122,12.14213 -10.10153,12.14213 -2.0203,0 -27.27412,22.70813 -29.7995,22.70813 -2.52538,0 -36.34518,9.61675 -36.34518,9.61675 l -54.568545,-1.51522 -35.355339,-15.67767 z"
       id="path6843"
       inkscape:connector-curvature="0"
       sodipodi:nodetypes="cccccccccccccccccccsscccc" />
  </g>
  <g
     inkscape:groupmode="layer"
     id="layer2"
     inkscape:label="inner">
    <path
       style="fill:#383e42;stroke:none;stroke-width:1px;stroke-linecap:butt;stroke-linejoin:miter;stroke-opacity:1;fill-opacity:1"
       d="m -58.588847,-82.352938 12.12183,-9.091373 22.728432,-8.08122 22.7284325,-9.091369 -4.5456865,-3.53554 -10.606602,0.50508 5.555839,-4.54569 13.1319833,-1.01015 30.3045757,7.57614 33.335034,17.677673 17.67767,22.728432 -13.63706,-10.101526 -33.84011,-18.182745 -28.2842707,-1.010153 9.5964487,13.131983 -1.515228,8.08122 -8.0812207,3.535534 -7.0710678,-2.525381 -13.1319825,-5.555839 -12.121831,1.010153 -30.809652,17.172593 -11.616755,22.223356 -10.101525,25.253813 1.010153,23.7385847 9.091372,10.6066013 13.63706,3.535534 9.091373,-7.071068 -3.535534,-12.12183 -7.071068,-18.687822 2.525381,-17.677669 11.616754,-9.091373 17.172594,2.525381 13.6370589,11.616754 L 2.0203051,-5.076269 2.5253813,19.167392 -8.5862966,35.834909 -30.304576,51.492273 -58.588847,49.471968 -79.296974,42.4009 l -16.162441,-2.525381 -11.616755,-4.04061 -9.59645,-21.213204 c 0,0 2.02031,-31.819804 2.52538,-33.84011 0.50508,-2.020305 12.62691,-35.860415 12.62691,-35.860415 l 15.657364,-15.152288 7.576144,0 c 0,0 2.525382,9.596449 3.030458,11.616754 0.505076,2.020306 4.04061,4.545687 4.04061,4.545687 l 9.091373,-6.565992 -0.505076,-10.101525 z"
       id="path3780"
       inkscape:connector-curvature="0" />
  </g>
</svg>
