<?xml version="1.0" encoding="UTF-8" standalone="no"?>
<!-- Created with Inkscape (http://www.inkscape.org/) -->

<svg
   xmlns:dc="http://purl.org/dc/elements/1.1/"
   xmlns:cc="http://creativecommons.org/ns#"
   xmlns:rdf="http://www.w3.org/1999/02/22-rdf-syntax-ns#"
   xmlns:svg="http://www.w3.org/2000/svg"
   xmlns="http://www.w3.org/2000/svg"
   xmlns:sodipodi="http://sodipodi.sourceforge.net/DTD/sodipodi-0.dtd"
   xmlns:inkscape="http://www.inkscape.org/namespaces/inkscape"
   width="500"
   height="500"
   id="svg2"
   version="1.1"
   inkscape:version="0.48.2 r9819"
   sodipodi:docname="explosion_ring.svg">
  <defs
     id="defs4" />
  <sodipodi:namedview
     id="base"
     pagecolor="#ffffff"
     bordercolor="#666666"
     borderopacity="1.0"
     inkscape:pageopacity="0.0"
     inkscape:pageshadow="2"
     inkscape:zoom="0.49497475"
     inkscape:cx="-187.28505"
     inkscape:cy="520.44801"
     inkscape:document-units="px"
     inkscape:current-layer="layer2"
     showgrid="false"
     inkscape:window-width="1280"
     inkscape:window-height="962"
     inkscape:window-x="-8"
     inkscape:window-y="-8"
     inkscape:window-maximized="1" />
  <metadata
     id="metadata7">
    <rdf:RDF>
      <cc:Work
         rdf:about="">
        <dc:format>image/svg+xml</dc:format>
        <dc:type
           rdf:resource="http://purl.org/dc/dcmitype/StillImage" />
        <dc:title></dc:title>
      </cc:Work>
    </rdf:RDF>
  </metadata>
  <g
     inkscape:groupmode="layer"
     id="layer2"
     inkscape:label="blast"
     transform="translate(0,-552.36217)"
     style="display:inline">
    <path
       style="fill:#fae8a6;fill-opacity:0.26455027;stroke:none"
       d="m -14.65625,-298.53125 -39.375,6.0625 -37.375,10.09375 -67.6875,28.3125 -55.5625,47.46875 -45.4375,60.59375 -30.3125,68.6875 -9.09375,93.96875 15.15625,78.78125 35.34375,71.71875 47.46875,55.5625 50.53125,36.375 61.59375,28.28125 61.625,12.125 84.875,-3.03125 83.8125,-32.34375 67.6875,-48.46875 48.5,-63.65625 30.3125,-65.65625 13.125,-87.875 -15.15625,-84.875 -31.3125,-73.71875 -26.28125,-32.34375 -36.34375,-34.34375 -36.375,-25.25 -46.46875,-25.25 -56.5625,-15.15625 -43.9629716,-3.89476 12.2306256,109.06483 49.755821,11.25904 49.003635,29.82233 45.95511,56.059797 18.19067,54.04425 -0.0117,75.742225 -29.79965,71.742228 -24.7465,27.76839 -48.494606,33.32503 -64.625792,18.1875 -80.831409,-12.10311 -48.997303,-27.27109 -38.88562,-39.90514 -11.10786,-19.191461 -18.67148,-43.458597 -5.05314,-47.96763573 6.06329,-49.49380927 20.19765,-46.479695 31.30473,-39.388322 35.365636,-27.76761 35.860563,-16.17814 28.791081,-7.07503 26.527327,-2.42612 23.752808,0.83403 L 7.5,-296.53125 z"
       transform="translate(0,552.36217)"
       id="path3758"
       inkscape:connector-curvature="0"
       sodipodi:nodetypes="cccccccccccccccccccccccccccccccccccccccccccccccccccccc" />
  </g>
</svg>
