<?xml version="1.0" encoding="UTF-8" standalone="no"?>
<!-- Created with Inkscape (http://www.inkscape.org/) -->

<svg
   xmlns:dc="http://purl.org/dc/elements/1.1/"
   xmlns:cc="http://creativecommons.org/ns#"
   xmlns:rdf="http://www.w3.org/1999/02/22-rdf-syntax-ns#"
   xmlns:svg="http://www.w3.org/2000/svg"
   xmlns="http://www.w3.org/2000/svg"
   xmlns:sodipodi="http://sodipodi.sourceforge.net/DTD/sodipodi-0.dtd"
   xmlns:inkscape="http://www.inkscape.org/namespaces/inkscape"
   width="500"
   height="500"
   id="svg2985"
   version="1.1"
   inkscape:version="0.48.2 r9819"
   sodipodi:docname="moon2.svg">
  <defs
     id="defs2987" />
  <sodipodi:namedview
     id="base"
     pagecolor="#ffffff"
     bordercolor="#666666"
     borderopacity="1.0"
     inkscape:pageopacity="0.0"
     inkscape:pageshadow="2"
     inkscape:zoom="3.959798"
     inkscape:cx="-73.039079"
     inkscape:cy="616.95946"
     inkscape:document-units="px"
     inkscape:current-layer="g3046"
     showgrid="false"
     inkscape:window-width="1280"
     inkscape:window-height="962"
     inkscape:window-x="-8"
     inkscape:window-y="-8"
     inkscape:window-maximized="1" />
  <metadata
     id="metadata2990">
    <rdf:RDF>
      <cc:Work
         rdf:about="">
        <dc:format>image/svg+xml</dc:format>
        <dc:type
           rdf:resource="http://purl.org/dc/dcmitype/StillImage" />
      </cc:Work>
    </rdf:RDF>
  </metadata>
  <g
     inkscape:label="Layer 1"
     inkscape:groupmode="layer"
     id="layer1"
     transform="translate(0,-552.36217)">
    <g
       id="g3046"
       transform="matrix(1.25,0,0,1.25,-102.05357,421.73717)">
      <g
         id="#80593fff"
         transform="translate(-86.957144,-63.899999)">
        <path
           id="path2996"
           d="m 154.38,0 7,0 c -7.65,0.93 3.56,5.3 -0.18,9.22 -4.23,2.59 7.37,6.16 0.86,6.72 -1.7,-3.25 -9,-1.14 -3.98,0.91 8.07,1.82 -3.06,9.94 -5.18,4.22 -0.47,1.78 -0.38,7.49 -3.83,9.78 3.22,3.52 9.7,-4.7 6.96,3.06 3.69,1.83 8.08,8.45 2.99,11.93 11.85,3.98 8.71,19.73 8.23,24.39 -5.34,0.84 2.36,5.01 -1.88,6.21 2.01,8.06 -9.13,3.71 -8.81,11.1 -7.33,4.46 6.97,11.68 -2.48,13.6 -7.65,5.19 7.66,10.44 3.93,14.86 -5.67,-3.22 -2.22,4.48 -6.85,2.33 -3.04,5.85 2.88,13.04 -1.49,19.37 -1.59,2.9 2.96,1.41 4.39,1.27 -0.81,3.27 -2.41,9.42 2.86,9.26 5.37,0.27 0.47,6.48 4.99,8.71 -4.4,2.17 -9.29,14.65 -5.24,15.66 3.81,-5.37 7.01,4.14 1.49,1.74 -2.9,3.65 -4.26,9.26 -0.13,11.65 6.43,-1.65 0.74,-12.95 7.94,-14.04 -0.8,5.55 3.2,18.84 -5.29,16.72 0.75,5.48 15.09,-0.3 14.7,8.14 -0.54,3.93 9.33,11.17 1.6,11.36 1.45,6.97 6.79,-1.37 10.9,-0.4 -0.42,-3.85 2.95,-19.79 5.35,-10.98 3.9,3.38 2.8,-6.69 7.78,-3.78 1.16,4.82 -5.09,7.19 -4.86,11.79 4.11,5.05 3.55,-7.61 7.74,-2.64 -2.34,2.56 -4.82,11.2 -1.57,11.18 -2.98,-6.44 10.51,-14.9 8.95,-7.11 -6.76,1.38 6.99,5.74 0.74,5.76 -4.99,-0.49 1.64,7.39 4.3,4.35 3.35,-3.75 7.12,2.82 10.06,-0.97 8.29,-3.36 8.61,12.49 0.68,11.74 -5.26,4.68 -5.32,8.28 -12.15,12.74 14.59,-3.39 -4.64,11.02 5.91,7.44 -0.7,5.17 5.42,3.43 6.7,0.92 1.51,-10.55 3,-21.92 13.74,-27.81 3.88,-0.44 3.82,5.64 6.44,6.37 5.31,-8.68 16.42,5.89 8.52,8.34 0.13,-6.87 -8.32,4.32 -9.97,-4.17 0.29,-4.14 -9.17,-8.34 -7.82,-1.63 4.29,5.88 -4.69,6.79 1.6,9.57 -14.57,-5.47 -3.2,8.41 -10.82,7.27 1.38,5.26 -6,4.88 -6.21,8.7 8.5,1.3 -9.79,9.82 -10.58,1.84 3.24,-9.61 -4.33,-0.7 -5.41,-5.44 5.05,0.12 8.85,-5.23 7.34,-9.57 -7.17,-3.48 -7.91,7.74 -11.18,11.03 11.92,2.44 0.36,10.72 2.99,17.36 -14.36,4.35 -23.95,-20.03 -19.56,-27.6 5.98,11.23 11.16,-4.79 6.4,-10.46 -6.05,-8.11 9.57,-12.43 3.8,-19.87 -3.99,-2.08 -1.88,5.28 -5.81,3.13 -4.09,-0.41 0.62,5.54 -2.9,5.65 -5.04,-5.64 -15.63,-7.28 -21.92,-1.71 -1.45,4.26 3.47,4.3 4.93,6.83 -3.34,-0.96 -6.55,-0.92 -9.89,-0.11 -1.6,-8.79 -14.62,-8.56 -16.26,-17.76 7.6,-0.35 -2.81,-4.93 -4.05,-8.12 6.34,2.86 7.03,-14.56 -0.91,-10 -0.81,-4.54 8.91,-0.3 5.07,-6.06 2.61,-6.86 -9.86,-8.61 -2.16,-12.12 -3.54,-3.85 -0.53,-11.37 -6.75,-12.15 -4.89,-6.41 7.44,-6.11 1.87,-8.72 -5.22,-3.2 7.03,-5.42 5,-10.08 -6.47,4.34 -2.69,-3.3 -10.03,1.16 2.38,-6.42 3.69,-13.18 -0.96,-19.14 1.06,-3.07 8.23,-8.62 -0.02,-8.07 0.64,-11.02 3.2,-21.89 7.4,-32.13 -0.43,-3.54 4.19,-3.02 6.46,-3.93 -3.13,-4.86 -2.73,-10.7 -6.82,-14.77 1.15,-2.04 8.04,-3.83 3.34,-6.49 -8.28,-5.62 7.84,-11.66 1.99,-18.87 0.58,-6.01 -10.86,-5.35 -7.7,-11.02 7.83,1.76 10.98,-11.83 5.41,-16.74 -3.63,-4.59 4.02,-4.56 3.03,-8.94 C 148.13,1 151.34,0.89 154.38,0 z"
           inkscape:connector-curvature="0"
           style="fill:#80593f" />
      </g>
      <g
         id="#946545ff"
         transform="translate(-86.957144,-63.899999)">
        <path
           id="path2999"
           d="m 161.38,0 3.41,0 c 7.81,0.97 5.41,11.57 12.13,16.84 -2.71,1.89 -5.61,3.57 -5.8,7.24 3.56,0.41 5.84,-5.35 8.75,-1.86 3.22,5.64 -2.32,5.03 -4.8,6.93 -1.34,6.9 7.07,8.86 9.58,14.16 1.08,5.54 -0.82,11.73 -6.53,13.91 0.67,4.82 4.25,10.53 8.68,13.08 -1.92,3.35 -2.35,9.26 -0.6,12.56 6.34,-2.68 8.38,4.61 11.81,7.94 -6.29,1.97 -9.11,11.46 -8.35,17.77 -2.97,0.92 -7.18,10.15 -1.85,7.55 4.07,2.6 -5.62,9.51 -3.98,2.78 -3.18,5.32 -4.29,7.98 -7.63,14.31 -2.61,1.56 -3.18,5.62 0.49,6.12 7.9,1.42 4.06,12.31 9.49,16.53 3.25,-1.64 8.96,-7.36 7.94,0.21 4.07,-4.21 9.68,-1.32 10.63,4.22 2.57,4.4 2.85,-3.45 6.01,-0.04 1.73,5.38 -1.23,12.06 3.24,16.75 -10.69,-3.91 -7.64,8.75 -0.04,9.99 3.75,-2.21 14.86,-9.8 11.14,-1.15 2.64,0.27 7.58,4.3 6.24,-1.14 -4.76,-6.8 6.11,-8.32 9.33,-3.33 0.31,13.8 5.37,-8.32 9.67,0.34 -2.55,9.15 9.3,6.66 8.17,14.05 4.57,3.28 15.37,1.71 9.76,9.47 -6.46,-0.7 -1.94,14.45 1.87,7.84 1.36,1.19 -3.98,8.34 2.87,4.92 -1.7,4.97 -2.48,14.03 4.74,12.13 4.08,8.41 3.64,26.92 17.97,14.76 -5.02,-3.39 6.92,-8.15 3.43,2.17 7.33,-0.27 4.11,-14.61 11.86,-10.97 -1.43,5.41 3.88,0.6 5.96,3.03 -2.5,2.58 -5.56,5.89 -3.93,9.72 -6.2,-1.61 -10.44,6.85 -14.89,10.4 -0.84,-4.13 6.22,-6.15 2.52,-9.93 -4.96,-2.83 -19,7.21 -21.79,-5.28 -1.16,1.32 -5.92,3.72 -4.53,0.26 5.51,-8.36 -5.38,-9.37 -10.14,-13.18 2.4,5.63 -10.61,19.79 -12,9.9 0.4,-2.35 3.79,-3.25 4,-5.89 7.9,-2.45 -3.21,-17.02 -8.52,-8.34 -2.62,-0.73 -2.56,-6.81 -6.44,-6.37 -10.74,5.89 -12.23,17.26 -13.74,27.81 -1.28,2.51 -7.4,4.25 -6.7,-0.92 -10.55,3.58 8.68,-10.83 -5.91,-7.44 6.83,-4.46 6.89,-8.06 12.15,-12.74 7.93,0.75 7.61,-15.1 -0.68,-11.74 -2.94,3.79 -6.71,-2.78 -10.06,0.97 -2.66,3.04 -9.29,-4.84 -4.3,-4.35 6.25,-0.02 -7.5,-4.38 -0.74,-5.76 1.56,-7.79 -11.93,0.67 -8.95,7.11 -3.25,0.02 -0.77,-8.62 1.57,-11.18 -4.19,-4.97 -3.63,7.69 -7.74,2.64 -0.23,-4.6 6.02,-6.97 4.86,-11.79 -4.98,-2.91 -3.88,7.16 -7.78,3.78 -2.4,-8.81 -5.77,7.13 -5.35,10.98 -4.11,-0.97 -9.45,7.37 -10.9,0.4 7.73,-0.19 -2.14,-7.43 -1.6,-11.36 0.39,-8.44 -13.95,-2.66 -14.7,-8.14 8.49,2.12 4.49,-11.17 5.29,-16.72 -7.2,1.09 -1.51,12.39 -7.94,14.04 -4.13,-2.39 -2.77,-8 0.13,-11.65 5.52,2.4 2.32,-7.11 -1.49,-1.74 -4.05,-1.01 0.84,-13.49 5.24,-15.66 -4.52,-2.23 0.38,-8.44 -4.99,-8.71 -5.27,0.16 -3.67,-5.99 -2.86,-9.26 -1.43,0.14 -5.98,1.63 -4.39,-1.27 4.37,-6.33 -1.55,-13.52 1.49,-19.37 4.63,2.15 1.18,-5.55 6.85,-2.33 3.73,-4.42 -11.58,-9.67 -3.93,-14.86 9.45,-1.92 -4.85,-9.14 2.48,-13.6 -0.32,-7.39 10.82,-3.04 8.81,-11.1 4.24,-1.2 -3.46,-5.37 1.88,-6.21 0.48,-4.66 3.62,-20.41 -8.23,-24.39 5.09,-3.48 0.7,-10.1 -2.99,-11.93 2.74,-7.76 -3.74,0.46 -6.96,-3.06 3.45,-2.29 3.36,-8 3.83,-9.78 2.12,5.72 13.25,-2.4 5.18,-4.22 -5.02,-2.05 2.28,-4.16 3.98,-0.91 6.51,-0.56 -5.09,-4.13 -0.86,-6.72 3.74,-3.92 -7.47,-8.29 0.18,-9.22 m -6.21,118.17 c 0.72,0.72 0.72,0.72 0,0 z"
           inkscape:connector-curvature="0"
           style="fill:#946545" />
      </g>
      <g
         id="#af764ffe"
         transform="translate(-86.957144,-63.899999)">
        <path
           id="path3002"
           d="m 164.79,0 31.23391,1.2121831 C 217.87406,7.871878 240.36,13.11 259.06,26.7 c -5.1,5.01 -12.92,-2.06 -18.78,-4.02 -4.33,-6.3 -14.35,-2.36 -17.71,-9.28 -3.79,-3.31 -6.73,1.68 -10.56,-0.38 2.27,3.67 -0.58,6.4 -1.02,9.83 13.79,-1.01 3.84,10 -3,7.12 2.86,6.89 -4.2,6.99 -8.23,3.41 -8.2,4.15 -14.42,16.54 -4.4,24.17 5.91,2.31 -2.64,15.72 3.69,11.57 5.3,3.03 8.52,8.82 14.08,11.67 -10.11,-1.37 -4.03,16.06 -12.94,15.44 -1.87,4.25 -1.99,9.03 -2.23,13.59 5.79,-4.05 2.27,8.89 7.07,4.25 2.58,-1.11 12.29,-8.75 8.78,-2.29 -1.78,7.42 2.44,9.05 8.22,4.18 2.07,-5.24 9.14,-7.82 12.99,-2.85 -4.12,-9.04 5.26,-6.22 10.78,-6.99 3.32,4.8 4.1,10.08 5.03,15.79 -3.19,5.63 -11.24,17.97 -1.77,21.09 0.83,5.24 10.88,4.7 8.35,10.3 -3.68,6.18 -0.66,15.53 1.56,20.62 6.23,-6.66 5.4,9.38 12.07,8.24 -5.89,3.75 3.58,9.39 3.04,14.63 -4.53,-2.48 -2.8,6.13 0.18,1.5 2.21,-4.42 10.71,1.3 7.7,-4.28 5.67,-2.54 4.29,15.06 0.79,7.25 -2.61,4 11.14,12 4.24,17.72 4.43,-2.29 14.69,-4.37 7.06,0.22 -5.6,11.74 7.64,-3.19 1.81,8.68 0.34,1.2 -6.59,8.12 -2.57,6.51 4.15,-2.27 1.35,7.52 4.48,3.38 -3.37,-8.91 11.95,1.36 8.33,-8.75 3.03,0.45 2.52,5.32 4.91,7.06 -7.75,-3.64 -4.53,10.7 -11.86,10.97 3.49,-10.32 -8.45,-5.56 -3.43,-2.17 -14.33,12.16 -13.89,-6.35 -17.97,-14.76 -7.22,1.9 -6.44,-7.16 -4.74,-12.13 -6.85,3.42 -1.51,-3.73 -2.87,-4.92 -3.81,6.61 -8.33,-8.54 -1.87,-7.84 5.61,-7.76 -5.19,-6.19 -9.76,-9.47 1.13,-7.39 -10.72,-4.9 -8.17,-14.05 -4.3,-8.66 -9.36,13.46 -9.67,-0.34 -3.22,-4.99 -14.09,-3.47 -9.33,3.33 1.34,5.44 -3.6,1.41 -6.24,1.14 3.72,-8.65 -7.39,-1.06 -11.14,1.15 -7.6,-1.24 -10.65,-13.9 0.04,-9.99 -4.47,-4.69 -1.51,-11.37 -3.24,-16.75 -3.16,-3.41 -3.44,4.44 -6.01,0.04 -0.95,-5.54 -6.56,-8.43 -10.63,-4.22 1.02,-7.57 -4.69,-1.85 -7.94,-0.21 -5.43,-4.22 -1.59,-15.11 -9.49,-16.53 -3.67,-0.5 -3.1,-4.56 -0.49,-6.12 3.34,-6.33 4.45,-8.99 7.63,-14.31 -1.64,6.73 8.05,-0.18 3.98,-2.78 -5.33,2.6 -1.12,-6.63 1.85,-7.55 -0.76,-6.31 2.06,-15.8 8.35,-17.77 -3.43,-3.33 -5.47,-10.62 -11.81,-7.94 -1.75,-3.3 -1.32,-9.21 0.6,-12.56 -4.43,-2.55 -8.01,-8.26 -8.68,-13.08 5.71,-2.18 7.61,-8.37 6.53,-13.91 -2.51,-5.3 -10.92,-7.26 -9.58,-14.16 2.48,-1.9 8.02,-1.29 4.8,-6.93 -2.91,-3.49 -5.19,2.27 -8.75,1.86 0.19,-3.67 3.09,-5.35 5.8,-7.24 C 170.2,11.57 172.6,1.5760915 164.79,0 m 19.38,55.17 c 0.72,0.72 0.72,0.72 0,0 m 84.97,150.97 c -0.97,4.68 4.68,-0.97 0,0 z"
           inkscape:connector-curvature="0"
           style="fill:#af764f"
           sodipodi:nodetypes="ccccccccccccccccccccccccccccccccccccccccccccccccccccccccccccccccccccccc" />
      </g>
      <g
         id="#6a4b38ff"
         transform="translate(-86.957144,-63.899999)">
        <path
           id="path3005"
           d="m 135.17,4.06 c 3.03,-1.53 6.58,-1.89 9.94,-2.08 0.99,4.38 -6.66,4.35 -3.03,8.94 5.57,4.91 2.42,18.5 -5.41,16.74 -3.16,5.67 8.28,5.01 7.7,11.02 5.85,7.21 -10.27,13.25 -1.99,18.87 4.7,2.66 -2.19,4.45 -3.34,6.49 4.09,4.07 3.69,9.91 6.82,14.77 -2.27,0.91 -6.89,0.39 -6.46,3.93 -4.2,10.24 -6.76,21.11 -7.4,32.13 8.25,-0.55 1.08,5 0.02,8.07 4.65,5.96 3.34,12.72 0.96,19.14 7.34,-4.46 3.56,3.18 10.03,-1.16 2.03,4.66 -10.22,6.88 -5,10.08 5.57,2.61 -6.76,2.31 -1.87,8.72 6.22,0.78 3.21,8.3 6.75,12.15 -7.7,3.51 4.77,5.26 2.16,12.12 3.84,5.76 -5.88,1.52 -5.07,6.06 7.94,-4.56 7.25,12.86 0.91,10 1.24,3.19 11.65,7.77 4.05,8.12 1.64,9.2 14.66,8.97 16.26,17.76 3.34,-0.81 6.55,-0.85 9.89,0.11 -1.46,-2.53 -6.38,-2.57 -4.93,-6.83 6.29,-5.57 16.88,-3.93 21.92,1.71 3.52,-0.11 -1.19,-6.06 2.9,-5.65 3.93,2.15 1.82,-5.21 5.81,-3.13 5.77,7.44 -9.85,11.76 -3.8,19.87 4.76,5.67 -0.42,21.69 -6.4,10.46 -4.39,7.57 5.2,31.95 19.56,27.6 -2.63,-6.64 8.93,-14.92 -2.99,-17.36 3.27,-3.29 4.01,-14.51 11.18,-11.03 1.51,4.34 -2.29,9.69 -7.34,9.57 1.08,4.74 8.65,-4.17 5.41,5.44 0.79,7.98 19.08,-0.54 10.58,-1.84 0.21,-3.82 7.59,-3.44 6.21,-8.7 7.62,1.14 -3.75,-12.74 10.82,-7.27 1.76,1.68 2.04,8.68 4.75,5.92 5.09,-1.21 -1.17,-9.53 -4.75,-5.92 -6.29,-2.78 2.69,-3.69 -1.6,-9.57 -1.35,-6.71 8.11,-2.51 7.82,1.63 -4.34,-3.37 -3.29,3.86 0,0 1.65,8.49 10.1,-2.7 9.97,4.17 -0.21,2.64 -3.6,3.54 -4,5.89 1.39,9.89 14.4,-4.27 12,-9.9 4.76,3.81 15.65,4.82 10.14,13.18 -1.39,3.46 3.37,1.06 4.53,-0.26 2.79,12.49 16.83,2.45 21.79,5.28 3.7,3.78 -3.36,5.8 -2.52,9.93 -4,5.07 -6.88,1.16 -3.19,-3.31 -8.68,-0.46 -7.43,8.9 -11.78,12.65 -5.37,1.26 -9.35,5.8 -14.05,8.6 1.77,2.62 3.62,5.86 2.35,9.1 -0.41,3.8 6.74,-1.2 5.23,3.43 -3.14,2.31 -3.99,9.63 1.5,6.47 -11.83,10.06 -25.11,18.41 -39.05,25.21 -3.08,-3.8 -8.52,-1.46 -12.09,-4.55 -0.2,-4.19 2.66,-7.74 2.97,-11.78 -3.3,-1.53 -11.75,-2.53 -13.36,-8.76 -8.26,0.8 -24.41,-2.56 -16.57,-13.16 -11.09,3.66 -3,-10.81 -10.1,-14.14 -4.43,-8.82 -11.46,-14.63 -21.02,-14.92 -6.35,-2.25 5.34,-1.03 3.08,-5.9 -4.12,3.82 -8.38,-7.25 -10.39,-0.39 -3.56,1.42 -1.02,-6.23 -4.62,-4.55 -3.48,1.49 -9.78,0.21 -10.07,-4.14 1.75,-2.15 6.27,-5.65 0.93,-5.94 -0.53,8.47 -21.21,-0.73 -12.34,-11.48 3.09,-8.74 -7.26,-6.37 -3.55,-13.49 -9.94,2.61 -10.84,-11.98 -7.41,-17.94 -2.01,-4.09 -8.87,-6.71 -5.34,-11.99 7.39,-3.21 7,-13.39 2.4,-18.95 -1.05,-8.4 -2.12,-17.65 -0.78,-27.11 -7.31,-2.1 -2.38,-10.22 -6.24,-14.89 -2.91,-7.57 7,-9.49 3.59,-17.32 5.39,-9.32 -12.29,-15.88 -4.82,-24.25 5.78,-7.03 1.9,-18.8 10.48,-23.87 -1.04,-6.15 5.86,-7.85 6.03,-13.69 -7.39,-2.64 -17,-3.59 -12.08,-14.22 7.34,0 16.26,-6.07 18.21,-13.84 -10.51,2.02 -8.01,-3.85 -0.9,-6.05 z"
           inkscape:connector-curvature="0"
           style="fill:#6a4b38" />
      </g>
      <g
         id="#543e2fff"
         transform="translate(-86.957144,-63.899999)">
        <path
           id="path3008"
           d="m 119.15,8.06 c 4.96,-2.48 10.56,-3.44 16.02,-4 -7.11,2.2 -9.61,8.07 0.9,6.05 -1.95,7.77 -10.87,13.84 -18.21,13.84 -4.92,10.63 4.69,11.58 12.08,14.22 -0.17,5.84 -7.07,7.54 -6.03,13.69 -8.58,5.07 -4.7,16.84 -10.48,23.87 -7.47,8.37 10.21,14.93 4.82,24.25 3.41,7.83 -6.5,9.75 -3.59,17.32 3.86,4.67 -1.07,12.79 6.24,14.89 -1.34,9.46 -0.27,18.71 0.78,27.11 4.6,5.56 4.99,15.74 -2.4,18.95 -3.53,5.28 3.33,7.9 5.34,11.99 -3.43,5.96 -2.53,20.55 7.41,17.94 -3.71,7.12 6.64,4.75 3.55,13.49 -8.87,10.75 11.81,19.95 12.34,11.48 5.34,0.29 0.82,3.79 -0.93,5.94 0.29,4.35 6.59,5.63 10.07,4.14 3.6,-1.68 1.06,5.97 4.62,4.55 2.01,-6.86 6.27,4.21 10.39,0.39 2.26,4.87 -9.43,3.65 -3.08,5.9 9.56,0.29 16.59,6.1 21.02,14.92 7.1,3.33 -0.99,17.8 10.1,14.14 -7.84,10.6 8.31,13.96 16.57,13.16 1.61,6.23 10.06,7.23 13.36,8.76 -0.31,4.04 -3.17,7.59 -2.97,11.78 3.57,3.09 9.01,0.75 12.09,4.55 -8.25,3.31 -16.4,6.94 -25.04,9.09 3.16,-6.98 -10.96,-8.25 -6.87,-14.15 8.29,-1.61 -8.11,-0.97 -1.62,-4.77 6.4,-3.87 -3.27,-6.08 -6.76,-4.59 4.6,-6.73 16.35,3.71 18.17,-7.99 -10.78,3.8 -23.33,2.69 -33.33,-1.39 -5.06,-6.02 6.38,-5.02 7.22,-10.41 -4.85,-4.06 -12.11,6.7 -10.98,-5.13 -9.15,-5.35 -17.63,3.11 -25.94,2.99 6.57,-1.11 -2.04,-8.03 2.62,-12.33 2.7,-6.6 -7.25,-5.44 -9.47,-2.7 1.65,-4.8 -7.79,-4.02 -3.37,2.21 -4.2,-2.73 -6.91,-15.32 -0.04,-13.26 1.6,-6.12 -9.86,-3.22 -7.34,-9.28 4.99,-10.42 -9.34,-4.82 -7.57,-12.69 -1.59,-0.18 -3.55,1.54 -4.67,-0.18 5,-12.2 -10.49,-8.19 -9.96,-18.72 3.2,-5.79 -8.63,-8.08 -5.4,-13.31 1.18,-12.69 -13.12,-25.78 -9.11,-37.49 -3.68,-6.03 10.1,-12.34 2.65,-17.2 -0.61,3.09 -3.83,3.35 -6.35,3.95 0.04,-4.57 6.27,-5.36 2.8,-10.95 -3.9,2.68 -5.64,-4.28 -1.74,-5.02 2.56,-5.45 -0.61,-13.84 3.89,-18.96 -6.29,-0.3 -6.41,-10.07 -12.98,-7.11 2.61,-5.39 2.93,-12.44 4.37,-19.69 7.07,-5.26 -4.26,-12.18 -0.75,-19.01 -4.37,-9.52 2.49,-21.88 4.1,-26.61 6.54,-0.12 17.93,-7.27 6.45,-10.94 4.82,-4.71 -1.33,-11.69 3.06,-16.55 4.01,-4.56 8.56,-8.39 13.95,-11.13 z"
           inkscape:connector-curvature="0"
           style="fill:#543e2f" />
      </g>
      <g
         id="#403128ff"
         transform="translate(-86.957144,-63.899999)">
        <path
           id="path3011"
           d="m 99.29,14.76 c 5.67,-3.04 13.52,-5.63 19.86,-6.7 -5.39,2.74 -9.94,6.57 -13.95,11.13 -4.39,4.86 1.76,11.84 -3.06,16.55 11.48,3.67 0.09,10.82 -6.45,10.94 -1.61,4.73 -8.47,17.09 -4.1,26.61 -3.51,6.83 7.82,13.75 0.75,19.01 -1.44,7.25 -1.76,14.3 -4.37,19.69 6.57,-2.96 6.69,6.81 12.98,7.11 -4.5,5.12 -1.33,13.51 -3.89,18.96 -3.9,0.74 -2.16,7.7 1.74,5.02 3.47,5.59 -2.76,6.38 -2.8,10.95 2.52,-0.6 5.74,-0.86 6.35,-3.95 7.45,4.86 -6.33,11.17 -2.65,17.2 -4.01,11.71 10.29,24.8 9.11,37.49 -3.23,5.23 8.6,7.52 5.4,13.31 -0.53,10.53 14.96,6.52 9.96,18.72 1.12,1.72 3.08,0 4.67,0.18 -1.77,7.87 12.56,2.27 7.57,12.69 -2.52,6.06 8.94,3.16 7.34,9.28 -6.87,-2.06 -4.16,10.53 0.04,13.26 -4.42,-6.23 5.02,-7.01 3.37,-2.21 2.22,-2.74 12.17,-3.9 9.47,2.7 -4.66,4.3 3.95,11.22 -2.62,12.33 8.31,0.12 16.79,-8.34 25.94,-2.99 -1.13,11.83 6.13,1.07 10.98,5.13 -0.84,5.39 -12.28,4.39 -7.22,10.41 10,4.08 22.55,5.19 33.33,1.39 -1.82,11.7 -13.57,1.26 -18.17,7.99 3.49,-1.49 13.16,0.72 6.76,4.59 -6.49,3.8 9.91,3.16 1.62,4.77 -4.09,5.9 10.03,7.17 6.87,14.15 -5.94,1.58 -11.96,2.89 -18.02,3.94 -1.51,-12.29 -15.61,-9.32 -20.69,-15.74 1.72,-8.87 -1.88,-3.12 -4.08,-1.75 -0.31,-5.37 -7.55,0.39 -6.42,-5.85 -5,-2.23 -12.83,-6.57 -16.87,-11.94 8.52,-6.02 -9.61,-1.18 -3.46,-7.46 -6.28,-3.8 -10.41,-12.38 -17.54,-16.65 -8.68,3.77 -9.34,-14.27 -0.71,-6.41 7.9,-1.78 -14.24,-9.54 -4.27,-7.6 -4.02,-5.42 -7.55,-11.22 -11.06,-17.01 3.84,-3.44 0.42,-7.49 -3.87,-4.96 0.66,-4.98 -5.31,-4.01 -2.35,-9.68 -5.44,-1.13 -2.06,-11.88 -7.08,-11.77 -0.59,-8.08 -6.47,-14.79 -7.89,-27.39 -3.8,-1.44 -6.36,-8.05 -4.16,-12.51 -4.97,-12.82 -4.14,-26.77 -3.8,-38.6 -4.42,3.74 -8.42,3.98 -3.12,-1.35 -7.17,-6.94 -2.8,-22.8 -0.65,-32.45 -2.34,-2.36 -0.69,-8.89 -5.13,-6.31 3.97,-10.17 1.08,-21.27 1.35,-33.05 7.83,-5.78 -0.73,-12.38 4.18,-18.82 6.58,-3.32 7.63,-12.95 9.28,-19.82 3.11,-4.85 8.37,-7.7 11.53,-12.53 z"
           inkscape:connector-curvature="0"
           style="fill:#403128"
           sodipodi:nodetypes="ccccccccccccccccccccccccccccccccccccccccccccccccccccccc" />
      </g>
      <g
         id="#cd8858ff"
         transform="translate(-86.957144,-63.899999)">
        <path
           id="path3014"
           d="m 212.01,13.02 c 3.83,2.06 6.77,-2.93 10.56,0.38 3.36,6.92 13.38,2.98 17.71,9.28 5.86,1.96 13.68,9.03 18.78,4.02 9.65,6.55 19.45,13.12 27.05,22.1 -0.05,2.53 6.21,7.95 1.1,8.03 -6.01,-10.65 -17.75,-16.49 -29.05,-19.76 -2.58,3 3.68,7.85 -2.09,7.92 -1.32,-5.15 -12.19,-2.49 -13.4,3.7 -10,2.83 -23.96,0.19 -31.31,8.56 0.31,8.03 15.12,1.97 12.7,7.81 -6.48,2.1 1.97,1.08 1.13,5.65 7.38,-2.54 2.41,9.64 8.81,9.25 4.36,-0.47 1.02,6.22 -2.06,3.22 -1.2,4.39 4.67,6.49 3.94,10.61 -3.43,1.33 -3.29,5.38 -4.96,8.21 4.51,-2.25 13.28,1.42 15.85,-7.19 7.49,-1.37 12.9,-8.83 21.23,-5.83 -1.94,-9.11 3.15,1.81 8.03,0.01 0.25,-3.96 -6.12,-2.18 -3.1,-6.76 -5.67,0.96 -7.76,-9.41 -1.16,-8.08 1.25,3.3 7.64,6.99 5.27,0.87 4.31,-1.64 5.41,3.57 4.58,6.65 -5.95,5.76 1.92,13.01 3.27,19.13 -2.68,1.25 -4.65,2.98 -4.03,6.21 -10.15,-2.99 -10.67,6.06 -11.11,13.77 -6.72,2.25 0.47,11.38 -5.37,13.64 -3.37,3.02 1.44,9.26 4.49,4.66 0.76,6.13 4.96,19.23 12.21,14.97 3.1,-7.45 1.56,3.47 4.17,5.64 4.05,-0.54 3.25,4.31 -0.09,4.63 4.85,7.21 4.46,15.87 7.03,23.58 6.71,-1.44 3.56,-15.84 12.47,-14.5 7.7,-2.34 11.17,16.18 1.27,8.62 1.31,6.79 -0.87,18.8 9.15,16.93 -4.65,-3.62 -5.3,-10.77 -0.69,-14.82 3.55,3.76 4.14,9.37 1.79,13.87 4.92,6.44 -6.55,16.33 4.54,17.86 2.52,-8.81 4.42,3.78 -1.66,4.31 3.46,2.7 -0.67,6.15 -2.06,8.85 2.72,-1.32 5.52,-0.58 8.24,0.31 -0.25,0.46 -0.74,1.37 -0.98,1.83 -4.94,0.75 -8.77,5.61 -13.25,4.92 -2.39,-1.74 -1.88,-6.61 -4.91,-7.06 3.62,10.11 -11.7,-0.16 -8.33,8.75 -3.13,4.14 -0.33,-5.65 -4.48,-3.38 -4.02,1.61 2.91,-5.31 2.57,-6.51 5.83,-11.87 -7.41,3.06 -1.81,-8.68 7.63,-4.59 -2.63,-2.51 -7.06,-0.22 6.9,-5.72 -6.85,-13.72 -4.24,-17.72 3.5,7.81 4.88,-9.79 -0.79,-7.25 3.01,5.58 -5.49,-0.14 -7.7,4.28 -2.98,4.63 -4.71,-3.98 -0.18,-1.5 0.54,-5.24 -8.93,-10.88 -3.04,-14.63 -6.67,1.14 -5.84,-14.9 -12.07,-8.24 -2.22,-5.09 -5.24,-14.44 -1.56,-20.62 2.53,-5.6 -7.52,-5.06 -8.35,-10.3 -9.47,-3.12 -1.42,-15.46 1.77,-21.09 -0.93,-5.71 -1.71,-10.99 -5.03,-15.79 -5.52,0.77 -14.9,-2.05 -10.78,6.99 -3.85,-4.97 -10.92,-2.39 -12.99,2.85 -5.78,4.87 -10,3.24 -8.22,-4.18 3.51,-6.46 -6.2,1.18 -8.78,2.29 -4.8,4.64 -1.28,-8.3 -7.07,-4.25 0.24,-4.56 0.36,-9.34 2.23,-13.59 8.91,0.62 2.83,-16.81 12.94,-15.44 -5.56,-2.85 -8.78,-8.64 -14.08,-11.67 -6.33,4.15 2.22,-9.26 -3.69,-11.57 -10.02,-7.63 -3.8,-20.02 4.4,-24.17 4.03,3.58 11.09,3.48 8.23,-3.41 6.84,2.88 16.79,-8.13 3,-7.12 0.44,-3.43 3.29,-6.16 1.02,-9.83 z"
           inkscape:connector-curvature="0"
           style="fill:#cd8858" />
      </g>
      <g
         id="#2a2623fe">
        <path
           id="path3017"
           d="m -86.957144,95.499997 c 3.79,-61.549996 43.21,-120.889996 100.89,-144.639996 -3.16,4.83 -8.4200001,7.68 -11.5300001,12.53 -1.65,6.87 -2.7,16.5 -9.2799999,19.82 -4.91,6.44 3.6499999,13.0400001 -4.18,18.8200001 -0.27,11.7799999 1.02,22.8799999 -2.95,33.0499999 4.44,-2.58 4.39,3.95 6.73,6.31 -2.15,9.65 -8.12,25.51 -0.95,32.45 -5.3,5.33 -1.3,5.09 3.1199999,1.35 -0.34,11.83 -1.17,25.779999 3.8,38.599999 -2.2,4.46 0.36,11.07 4.16,12.51 1.42,12.6 7.3000001,19.31 7.8900001,27.39 5.02,-0.11 1.64,10.64 7.08,11.77 -2.96,5.67 3.01,4.7 2.35,9.68 4.29,-2.53 7.71,1.52 3.87,4.96 3.51,5.79 7.04,11.59 11.06,17.01 -9.97,-1.94 12.17,5.82 4.27,7.6 -8.63,-7.86 -7.97,10.18 0.71,6.41 7.13,4.27 11.26,12.85 17.54,16.65 -6.15,6.28 11.98,1.44 3.46,7.46 4.04,5.37 11.87,9.71 16.87,11.94 -1.13,6.24 6.11,0.48 6.42,5.85 2.2,-1.37 5.8,-7.12 4.08,1.75 5.08,6.42 19.180004,3.45 20.690004,15.74 -5.98,1.65 -12.890004,0.23 -18.500004,2.59 l -18.22,0 c -61.59,-3.57 -119.79,-43.08 -144.5,-99.95 -8.91,-18.59 -12.38,-39.42 -14.88,-59.45 z"
           inkscape:connector-curvature="0"
           style="fill:#2a2623"
           sodipodi:nodetypes="ccccccccccccccccccccccccccccc" />
      </g>
      <g
         id="#ea9c64ff"
         transform="translate(-86.957144,-63.899999)">
        <path
           id="path3020"
           d="m 258.16,37.07 c 11.3,3.27 23.04,9.11 29.05,19.76 5.11,-0.08 -1.15,-5.5 -1.1,-8.03 30.89,28.95 48.21,70.86 50.89,112.58 l 0,14.24 c -1.47,18.13 -4.97,36.59 -11.76,53.71 -2.72,-0.89 -5.52,-1.63 -8.24,-0.31 1.39,-2.7 5.52,-6.15 2.06,-8.85 6.08,-0.53 4.18,-13.12 1.66,-4.31 -11.09,-1.53 0.38,-11.42 -4.54,-17.86 2.35,-4.5 1.76,-10.11 -1.79,-13.87 -4.61,4.05 -3.96,11.2 0.69,14.82 -10.02,1.87 -7.84,-10.14 -9.15,-16.93 9.9,7.56 6.43,-10.96 -1.27,-8.62 -8.91,-1.34 -5.76,13.06 -12.47,14.5 -2.57,-7.71 -2.18,-16.37 -7.03,-23.58 3.34,-0.32 4.14,-5.17 0.09,-4.63 -2.61,-2.17 -1.07,-13.09 -4.17,-5.64 -7.25,4.26 -11.45,-8.84 -12.21,-14.97 -3.05,4.6 -7.86,-1.64 -4.49,-4.66 5.84,-2.26 -1.35,-11.39 5.37,-13.64 0.44,-7.71 0.96,-16.76 11.11,-13.77 -0.62,-3.23 1.35,-4.96 4.03,-6.21 -1.35,-6.12 -9.22,-13.37 -3.27,-19.13 0.83,-3.08 -0.27,-8.29 -4.58,-6.65 2.37,6.12 -4.02,2.43 -5.27,-0.87 -6.6,-1.33 -4.51,9.04 1.16,8.08 -3.02,4.58 3.35,2.8 3.1,6.76 -4.88,1.8 -9.97,-9.12 -8.03,-0.01 -8.33,-3 -13.74,4.46 -21.23,5.83 -2.57,8.61 -11.34,4.94 -15.85,7.19 1.67,-2.83 1.53,-6.88 4.96,-8.21 0.73,-4.12 -5.14,-6.22 -3.94,-10.61 3.08,3 6.42,-3.69 2.06,-3.22 -6.4,0.39 -1.43,-11.79 -8.81,-9.25 0.84,-4.57 -7.61,-3.55 -1.13,-5.65 2.42,-5.84 -12.39,0.22 -12.7,-7.81 7.35,-8.37 21.31,-5.73 31.31,-8.56 1.21,-6.19 12.08,-8.85 13.4,-3.7 5.77,-0.07 -0.49,-4.92 2.09,-7.92 z"
           inkscape:connector-curvature="0"
           style="fill:#ea9c64" />
      </g>
      <g
         id="#a36b47ff"
         transform="translate(-86.957144,-63.899999)">
        <path
           id="path3023"
           d="m 184.17,55.17 c 0.72,0.72 0.72,0.72 0,0 z"
           inkscape:connector-curvature="0"
           style="fill:#a36b47" />
      </g>
      <g
         id="#8b5e3fff"
         transform="translate(-86.957144,-63.899999)">
        <path
           id="path3026"
           d="m 155.17,118.17 c 0.72,0.72 0.72,0.72 0,0 z"
           inkscape:connector-curvature="0"
           style="fill:#8b5e3f" />
      </g>
      <g
         id="#a36c45ff"
         transform="translate(-86.957144,-63.899999)">
        <path
           id="path3029"
           d="m 269.14,206.14 c 4.68,-0.97 -0.97,4.68 0,0 z"
           inkscape:connector-curvature="0"
           style="fill:#a36c45" />
      </g>
      <g
         id="#77523dff"
         transform="translate(-86.957144,-63.899999)">
        <path
           id="path3032"
           d="m 246.24,230.94 c -4.34,-3.37 -3.29,3.86 0,0 z"
           inkscape:connector-curvature="0"
           style="fill:#77523d" />
      </g>
      <g
         id="#a26f4afd"
         transform="translate(-86.957144,-63.899999)">
        <path
           id="path3035"
           d="m 311.01,236.08 c 4.48,0.69 8.31,-4.17 13.25,-4.92 -9.25,25.21 -26.21,47.1 -46.05,65.01 -5.49,3.16 -4.64,-4.16 -1.5,-6.47 1.51,-4.63 -5.64,0.37 -5.23,-3.43 1.27,-3.24 -0.58,-6.48 -2.35,-9.1 4.7,-2.8 8.68,-7.34 14.05,-8.6 4.35,-3.75 3.1,-13.11 11.78,-12.65 -3.69,4.47 -0.81,8.38 3.19,3.31 4.45,-3.55 8.69,-12.01 14.89,-10.4 -1.63,-3.83 1.43,-7.14 3.93,-9.72 -2.08,-2.43 -7.39,2.38 -5.96,-3.03 z"
           inkscape:connector-curvature="0"
           style="fill:#a26f4a" />
      </g>
      <g
         id="#7a4f41ff"
         transform="translate(-86.957144,-63.899999)">
        <path
           id="path3038"
           d="m 240.02,238.88 c 3.58,-3.61 9.84,4.71 4.75,5.92 -2.71,2.76 -2.99,-4.24 -4.75,-5.92 z"
           inkscape:connector-curvature="0"
           style="fill:#7a4f41" />
      </g>
    </g>
  </g>
</svg>
