<?xml version="1.0" encoding="UTF-8" standalone="no"?>
<!-- Created with Inkscape (http://www.inkscape.org/) -->

<svg
   xmlns:dc="http://purl.org/dc/elements/1.1/"
   xmlns:cc="http://creativecommons.org/ns#"
   xmlns:rdf="http://www.w3.org/1999/02/22-rdf-syntax-ns#"
   xmlns:svg="http://www.w3.org/2000/svg"
   xmlns="http://www.w3.org/2000/svg"
   xmlns:sodipodi="http://sodipodi.sourceforge.net/DTD/sodipodi-0.dtd"
   xmlns:inkscape="http://www.inkscape.org/namespaces/inkscape"
   id="svg3806"
   version="1.1"
   inkscape:version="0.48.2 r9819"
   width="500"
   height="500"
   sodipodi:docname="nuwe_turret_base.svg">
  <metadata
     id="metadata3812">
    <rdf:RDF>
      <cc:Work
         rdf:about="">
        <dc:format>image/svg+xml</dc:format>
        <dc:type
           rdf:resource="http://purl.org/dc/dcmitype/StillImage" />
        <dc:title></dc:title>
      </cc:Work>
    </rdf:RDF>
  </metadata>
  <defs
     id="defs3810" />
  <sodipodi:namedview
     pagecolor="#ffffff"
     bordercolor="#666666"
     borderopacity="1"
     objecttolerance="10"
     gridtolerance="10"
     guidetolerance="10"
     inkscape:pageopacity="0"
     inkscape:pageshadow="2"
     inkscape:window-width="1280"
     inkscape:window-height="962"
     id="namedview3808"
     showgrid="false"
     inkscape:zoom="3.68"
     inkscape:cx="19.105338"
     inkscape:cy="442.61903"
     inkscape:window-x="-8"
     inkscape:window-y="-8"
     inkscape:window-maximized="1"
     inkscape:current-layer="layer4" />
  <g
     inkscape:groupmode="layer"
     id="layer4"
     inkscape:label="bole"
     transform="translate(0,400)">
    <path
       style="fill:#636068;fill-opacity:1;stroke:none"
       d="m -44.021739,-372.01087 -8.152174,-4.89131 -19.836957,12.77174 0.543479,23.64131 6.521739,2.98913 2.98913,-0.81522 16.576087,-27.71739 z"
       id="path4368"
       inkscape:connector-curvature="0" />
    <path
       style="fill:#636068;fill-opacity:1;stroke:none"
       d="m 25.543477,-382.06522 -2.17391,-17.39131 -11.95652,-11.95652 -19.021743,-0.27174 -12.5,10.59783 -4.076087,16.57609 2.717392,3.80434 45.108698,0.27174 z"
       id="path4370"
       inkscape:connector-curvature="0" />
  </g>
  <g
     inkscape:groupmode="layer"
     id="layer2"
     inkscape:label="main"
     style="display:inline"
     transform="translate(0,400)">
    <path
       style="fill:#58575f;fill-opacity:1;stroke:none"
       d="m 76.163037,-320.40218 -37.22826,-61.95652 -77.989125,0.27174 -33.967391,59.23913 z"
       id="path4346"
       inkscape:connector-curvature="0" />
  </g>
  <g
     inkscape:groupmode="layer"
     id="layer1"
     inkscape:label="base"
     style="display:inline"
     transform="translate(0,400)">
    <path
       style="fill:#4f4e51;fill-opacity:1;stroke:none"
       d="m 83.152167,-315.72283 1.63044,-7.06521 -12.5,-3.53261 -20.92392,-10.05435 -17.66304,0.54348 -20.65218,-12.22827 -19.293469,12.50001 -5.16304,11.95652 -22.28261,-4.61957 -26.902176,3.26087 -6.25,-6.79347 -10.597826,-0.27174 -4.891304,5.70652 0,4.07608 -2.445652,4.34783 c 0,0 56.793478,-2.44565 59.782608,-2.44565 2.98913,0 108.152169,4.61956 108.152169,4.61956 z"
       id="path3816-1"
       inkscape:connector-curvature="0" />
  </g>
</svg>
