<?xml version="1.0" encoding="UTF-8" standalone="no"?>
<!-- Created with Inkscape (http://www.inkscape.org/) -->

<svg
   xmlns:dc="http://purl.org/dc/elements/1.1/"
   xmlns:cc="http://creativecommons.org/ns#"
   xmlns:rdf="http://www.w3.org/1999/02/22-rdf-syntax-ns#"
   xmlns:svg="http://www.w3.org/2000/svg"
   xmlns="http://www.w3.org/2000/svg"
   xmlns:sodipodi="http://sodipodi.sourceforge.net/DTD/sodipodi-0.dtd"
   xmlns:inkscape="http://www.inkscape.org/namespaces/inkscape"
   width="500"
   height="500"
   id="svg2"
   version="1.1"
   inkscape:version="0.48.2 r9819"
   sodipodi:docname="asteroid2.svg">
  <defs
     id="defs4" />
  <sodipodi:namedview
     id="base"
     pagecolor="#ffffff"
     bordercolor="#666666"
     borderopacity="1.0"
     inkscape:pageopacity="0.0"
     inkscape:pageshadow="2"
     inkscape:zoom="2.8"
     inkscape:cx="10.59049"
     inkscape:cy="496.12752"
     inkscape:document-units="px"
     inkscape:current-layer="layer1"
     showgrid="false"
     inkscape:window-width="1280"
     inkscape:window-height="962"
     inkscape:window-x="-8"
     inkscape:window-y="-8"
     inkscape:window-maximized="1" />
  <metadata
     id="metadata7">
    <rdf:RDF>
      <cc:Work
         rdf:about="">
        <dc:format>image/svg+xml</dc:format>
        <dc:type
           rdf:resource="http://purl.org/dc/dcmitype/StillImage" />
        <dc:title />
      </cc:Work>
    </rdf:RDF>
  </metadata>
  <g
     inkscape:label="Layer 1"
     inkscape:groupmode="layer"
     id="layer1"
     transform="translate(0,-552.36217)">
    <path
       style="fill:#646464;fill-opacity:1;stroke:none"
       d="m -38.391182,496.59584 20.867821,-17.77739 25.23365,-1.45631 36.72696,12.27339 22.151541,24.13437 5.633291,49.96905 -14.420485,18.6123 -24.424394,11.62532 -11.534864,28.33484 -35.160099,3.59446 -26.63551,-7.2816 -6.253619,-7.0287 -6.176287,-13.05801 -6.902537,-34.48333 -12.910547,-34.2649 16.625501,-11.48752 z"
       id="path2985"
       inkscape:connector-curvature="0"
       sodipodi:nodetypes="ccccccccccccccccc" />
  </g>
  <g
     inkscape:groupmode="layer"
     id="layer3"
     inkscape:label="skadu">
    <path
       style="fill:#42424a;fill-opacity:1;stroke:none"
       d="m -36.997662,-21.443343 -1.40187,4.1869 c 0,0 -1.83995,10.4672202 -1.83995,10.8313102 0,0.36407 1.31425,5.82523996 1.31425,5.82523996 l 4.29322,3.18568004 -5.51986,-1.91141004 -2.36565,-5.09708996 0.43809,-12.3786302 7.79789,-7.64564 z"
       id="path3811"
       inkscape:connector-curvature="0" />
    <path
       style="fill:#42424a;fill-opacity:1;stroke:none"
       d="m 6.9642857,-74.82143 -31.7857147,23.750001 -11.25,21.785714 -6.25,9.642857 0.714286,3.035714 -0.357143,13.9285715 0.535714,19.2857145 -5.357142,15.357143 -1.071429,1.964285 2.142857,3.928572 -0.178571,3.571428 -3.571429,1.785715 -1.607143,2.5 5.535715,14.642857 -12.321429,-18.392858 -5.797664,-15.860501 -0.809479,-15.032356 -7.5,-33.035714 10.357143,-23.035714 17.678571,-18.214286 26.250001,-10.535714 z"
       id="path3813"
       inkscape:connector-curvature="0"
       sodipodi:nodetypes="cccccccccccccccccccccc" />
    <path
       style="fill:#42424a;stroke:none;stroke-width:1px;stroke-linecap:butt;stroke-linejoin:miter;stroke-opacity:1;fill-opacity:1"
       d="m 14.89975,-66.695579 c -2.020305,1.262691 -3.282996,5.303301 -3.030458,6.313454 0.252539,1.010152 5.050763,8.333758 5.050763,8.333758 l 12.374369,8.081221 -11.869293,-1.767767 c 0,0 -15.9099022,-4.798225 -16.92005473,-5.808377 -1.01015254,-1.010153 -3.78807207,-9.343911 -3.78807207,-9.343911 0,0 2.77791953,-4.798225 5.3033009,-5.050763 2.5253814,-0.252538 12.8794449,-0.757615 12.8794449,-0.757615 z"
       id="path3833"
       inkscape:connector-curvature="0" />
  </g>
  <g
     inkscape:groupmode="layer"
     id="layer2"
     inkscape:label="gate">
    <path
       style="fill:#222824;fill-opacity:1;stroke:none"
       d="m -7.993381,63.74749 -11.74066,1.27427 c 0,0 -6.30841,-1.45631 -6.48365,-2.18447 -0.17523,-0.72815 -0.17523,-4.00485 -0.17523,-4.00485 0,0 4.38084,-0.54612 5.08178,-0.54612 0.70093,0 9.11214,0 9.81308,0 0.70093,0 7.88551,2.36651 7.88551,2.36651 l -1.40187,2.73058 z"
       id="path3759"
       inkscape:connector-curvature="0" />
    <path
       style="fill:#323e3a;fill-opacity:1;stroke:none"
       d="m 59.478243,-22.956743 4.73131,15.4733002 0.87617,10.37621 -2.97898,10.1941798 c 0,0 -2.97897,-2.73058 -3.1542,-3.4587398 -0.17524,-0.72815 -1.92758,-17.11165 -1.92758,-17.11165 l -3.50467,-17.2936902 3.15421,-8.73787 2.80374,5.27914 z"
       id="path3761"
       inkscape:connector-curvature="0" />
    <path
       style="fill:#2d2b3b;fill-opacity:1;stroke:none"
       d="m -10.536921,-0.50725397 1.2994244,3.03159607 -1.1137964,4.452655 -4.455174,1.800004 c 0,0 -4.083902,-2.368431 -4.083902,-2.747383 0,-0.378946 0.64971,-5.11580897 0.742524,-5.58949897 0.09282,-0.473684 1.856325,-4.45265393 2.320407,-4.45265393 0.464081,0 5.290517,3.50528083 5.290517,3.50528083 z"
       id="path3763"
       inkscape:connector-curvature="0" />
    <path
       style="fill:#2d313b;fill-opacity:1;stroke:none"
       d="m -26.9737,-21.44668 7.18457,3.64076 c 0,0 1.92758,9.10196 1.05141,10.55826 -0.87616,1.45631 -2.80374,7.64564 -4.73131,7.64564 -1.92757,0 -13.31775,-4.1869 -13.31775,-4.1869 l 0.5257,-9.83009 z"
       id="path3765"
       inkscape:connector-curvature="0" />
    <path
       style="fill:#22221e;fill-opacity:1;stroke:none"
       d="m 22.105567,52.653672 c -1.393996,2.31864 -2.130828,4.772944 -4.875627,6.812725 l -5.530673,1.028404 1.799424,-3.443394 c 0,0 3.510224,-2.994396 3.918979,-3.670254 0.408772,-0.675846 6.990895,-4.691327 6.487324,-4.17089 -0.503573,0.520451 -1.799427,3.443409 -1.799427,3.443409 z"
       id="path3767"
       inkscape:connector-curvature="0"
       sodipodi:nodetypes="cccccsc" />
    <path
       style="fill:#1f282d;fill-opacity:1;stroke:none"
       d="m -57.561935,33.011265 -0.623252,-8.12643 3.997433,3.470963 5.932055,9.001501 c 0,0 -2.115859,5.200345 -3.378588,4.917205 -1.262744,-0.283139 -5.927648,-9.263239 -5.927648,-9.263239 z"
       id="path3769"
       inkscape:connector-curvature="0" />
    <path
       style="fill:#222824;fill-opacity:1;stroke:none"
       d="m 38.967807,-47.242151 -14.8373,-5.741995 c 0,0 -6.646034,-5.64428 -6.404653,-6.623056 0.241387,-0.978756 2.271144,-4.895249 2.271144,-4.895249 0,0 5.580064,2.058093 6.418754,2.491833 0.838678,0.433732 10.90287,5.638555 11.741559,6.072293 0.838678,0.433732 7.969244,7.708105 7.969244,7.708105 l -3.368829,2.396268 z"
       id="path3759-1"
       inkscape:connector-curvature="0" />
    <path
       style="fill:#42424a;stroke:none;stroke-width:1px;stroke-linecap:butt;stroke-linejoin:miter;stroke-opacity:1;fill-opacity:1"
       d="m 52.142857,-35.535715 c 0,0 -0.714285,6.964285 -1.428571,7.321428 -0.714286,0.357143 0,11.607143 0,11.607143 l 3.571428,20.7142858 5.357143,10.7142862 c 0,0 -5.535714,-3.214286 -6.785714,-3.75 -1.25,-0.535715 -8.392857,-10.0000005 -8.75,-11.0714290552746 C 43.75,-1.0714296 45,-30.535715 45,-30.535715 l 6.785714,-7.857143 z"
       id="path3835"
       inkscape:connector-curvature="0" />
  </g>
</svg>
