<?xml version="1.0" encoding="UTF-8" standalone="no"?>
<!-- Created with Inkscape (http://www.inkscape.org/) -->

<svg
   xmlns:dc="http://purl.org/dc/elements/1.1/"
   xmlns:cc="http://creativecommons.org/ns#"
   xmlns:rdf="http://www.w3.org/1999/02/22-rdf-syntax-ns#"
   xmlns:svg="http://www.w3.org/2000/svg"
   xmlns="http://www.w3.org/2000/svg"
   xmlns:sodipodi="http://sodipodi.sourceforge.net/DTD/sodipodi-0.dtd"
   xmlns:inkscape="http://www.inkscape.org/namespaces/inkscape"
   width="500"
   height="500"
   id="svg2"
   version="1.1"
   inkscape:version="0.48.2 r9819"
   sodipodi:docname="moon3.svg">
  <defs
     id="defs4" />
  <sodipodi:namedview
     id="base"
     pagecolor="#ffffff"
     bordercolor="#666666"
     borderopacity="1.0"
     inkscape:pageopacity="0.0"
     inkscape:pageshadow="2"
     inkscape:zoom="0.7"
     inkscape:cx="-232.34671"
     inkscape:cy="451.68654"
     inkscape:document-units="px"
     inkscape:current-layer="g3038"
     showgrid="false"
     inkscape:window-width="1280"
     inkscape:window-height="962"
     inkscape:window-x="-8"
     inkscape:window-y="-8"
     inkscape:window-maximized="1" />
  <metadata
     id="metadata7">
    <rdf:RDF>
      <cc:Work
         rdf:about="">
        <dc:format>image/svg+xml</dc:format>
        <dc:type
           rdf:resource="http://purl.org/dc/dcmitype/StillImage" />
        <dc:title></dc:title>
      </cc:Work>
    </rdf:RDF>
  </metadata>
  <g
     inkscape:label="Layer 1"
     inkscape:groupmode="layer"
     id="layer1"
     transform="translate(0,-552.36217)">
    <g
       id="g3038"
       transform="matrix(1.4836795,0,0,1.4836795,-250,302.36218)">
      <g
         id="#80593fff"
         style="stroke:#80593f;stroke-opacity:1;fill:#80593f;fill-opacity:1">
        <path
           id="path2988"
           d="m 154.38,0 7,0 c -7.73,1 5.28,6.93 -1.35,10.94 8.01,6.9 -0.44,2 -3.99,4.95 10.35,1.52 0.4,11.17 -4.03,5.08 1.8,3.68 -0.53,7.23 -2.94,9.88 3.22,3.52 9.7,-4.7 6.96,3.06 3.69,1.83 8.08,8.45 2.99,11.93 14.72,7.37 6.89,22.75 7.06,30.19 1.49,8.14 -9.45,4.07 -9.52,11.51 -6.79,4.67 7.13,12.34 -3.25,13.87 -4.95,6.33 5.94,8.39 5.73,14.6 -7.24,-1.13 -9.37,3.88 -8.63,11.64 4.54,3.83 -5.97,14.56 3.65,11.32 -1.46,4.1 -1.69,10.08 4.25,9.64 6.58,7.56 -2.41,14.19 -3.33,24.47 3.03,-1.6 7.54,-3.86 5.98,1.89 -7.25,-2.72 -7.78,14.4 -0.22,9.8 1.25,-4.29 -0.17,-11.64 5.23,-12.82 -1.32,4.26 3.68,19.49 -4.8,16.18 -2.9,4.9 10.7,2.41 12.82,4.87 0.71,6.47 9.26,13.7 3.19,16.8 10.71,4 10.95,-11.02 14.57,-16.5 -0.09,5.43 5.8,5.14 5.48,-0.2 11.14,-2.46 -7.67,16.05 2.37,11.59 7.73,-10.67 -2.04,8.93 2.72,8.65 -2.22,-5.91 8.51,-14.81 9.64,-7.5 -8.06,1.79 8.38,7.21 -2.02,6.28 1.51,8.83 9.49,0.32 14.07,4.84 8.79,-8.54 12.78,10.48 3.04,10.15 -5.26,4.68 -5.32,8.28 -12.15,12.74 14.59,-3.39 -4.64,11.02 5.91,7.44 1.3,8.02 9.83,-0.28 7.3,-5.29 0.44,-8.6 12.2,-31.23 19.58,-15.23 5.31,-8.68 16.42,5.89 8.52,8.34 0.13,-6.87 -8.32,4.32 -9.97,-4.17 -5.38,-13.54 -12.81,4.69 -6.22,7.94 -14.57,-5.47 -3.2,8.41 -10.82,7.27 1.04,4.67 -4.59,5.19 -6.17,7.81 9.13,4.32 -15.71,11.53 -11.18,-1.92 -11.43,1.7 7.17,-3.69 2.49,-10.36 -7.17,-3.48 -7.91,7.74 -11.18,11.03 11.92,2.44 0.36,10.72 2.99,17.36 -14.36,4.35 -23.95,-20.03 -19.56,-27.6 5.98,11.23 11.16,-4.79 6.4,-10.46 -6.05,-8.11 9.57,-12.43 3.8,-19.87 -4.34,1.75 -7.33,4.31 -8.71,8.78 -3.65,-6.57 -25.03,-8.13 -20.8,2.73 8.36,3.23 -2.52,0.9 -6.08,2.28 -1.6,-8.79 -14.62,-8.56 -16.26,-17.76 9.74,0.51 -9.09,-8.94 -1.74,-7.6 3.49,-2.46 4.03,-14.09 -3.22,-10.52 -0.81,-4.54 8.91,-0.3 5.07,-6.06 2.61,-6.86 -9.86,-8.61 -2.16,-12.12 -3.54,-3.85 -0.53,-11.37 -6.75,-12.15 -4.89,-6.41 7.44,-6.11 1.87,-8.72 -5.22,-3.2 7.03,-5.42 5,-10.08 -6.47,4.34 -2.69,-3.3 -10.03,1.16 3.47,-7.09 1.93,-14.04 -0.86,-20.9 9.58,-5.13 -3.89,-6.21 0.46,-13.5 3.06,-9.75 2.48,-26.89 13.02,-29.47 -0.69,-6.39 -10.76,-14.71 -1.81,-17.52 1.02,-3.61 -7.61,-5.93 -2.81,-9.7 6.54,-5.23 5.31,-16.59 -2.97,-18.99 -4.75,-1.62 -0.59,-6.76 2.8,-4.12 9.96,-8.67 -4.05,-18.86 4.3,-25.9 C 148.13,1 151.34,0.89 154.38,0 z"
           inkscape:connector-curvature="0"
           style="fill:#80593f;stroke:#80593f;stroke-opacity:1;fill-opacity:1" />
      </g>
      <g
         id="#946545ff"
         style="fill:#946545;fill-opacity:1;stroke:#946545;stroke-opacity:1">
        <path
           id="path2991"
           d="m 161.38,0 3.41,0 c 7.81,0.97 5.41,11.57 12.13,16.84 -3.72,1.08 -8.9,9.59 -2.06,6.05 4.93,-6.4 7.95,6.08 0.87,5.85 -3.3,6.43 6.58,9.41 8.92,14.57 1.08,5.54 -0.82,11.73 -6.53,13.91 0.67,4.82 4.25,10.53 8.68,13.08 -1.92,3.35 -2.35,9.26 -0.6,12.56 6.34,-2.68 8.38,4.61 11.81,7.94 -9.49,3.51 -6.66,16.17 -12.19,23.11 -3.69,4.73 5.45,0.4 2.47,5.38 -3.47,6.35 -6.47,-4.38 -6.71,4 -0.06,3.52 -13.62,14.71 -2.63,16.78 5.07,2.72 2.84,21.16 11.29,13.17 4.81,-5.34 2.5,6.06 6.53,1.51 3.93,-3.26 7.33,3.59 9.42,6.98 7.72,-7.71 4.04,13.32 6.92,15.05 -13.47,-3.88 -1.63,16.82 5.06,7.46 10.08,-8.28 5.18,6.34 13.69,2.56 -5.44,-7.12 3.79,-11.72 8.81,-5.43 0.31,13.8 5.37,-8.32 9.67,0.34 -2.55,9.15 9.3,6.66 8.17,14.05 4.57,3.28 15.37,1.71 9.76,9.47 -6.46,-0.7 -1.94,14.45 1.87,7.84 1.36,1.19 -3.98,8.34 2.87,4.92 -1.7,4.97 -2.48,14.03 4.74,12.13 4.08,8.41 3.64,26.92 17.97,14.76 -5.02,-3.39 6.92,-8.15 3.43,2.17 7.33,-0.27 4.11,-14.61 11.86,-10.97 -1.43,5.41 3.88,0.6 5.96,3.03 -2.5,2.58 -5.56,5.89 -3.93,9.72 -6.2,-1.61 -10.44,6.85 -14.89,10.4 -0.84,-4.13 6.22,-6.15 2.52,-9.93 -4.96,-2.83 -19,7.21 -21.79,-5.28 -1.16,1.32 -5.92,3.72 -4.53,0.26 5.51,-8.36 -5.38,-9.37 -10.14,-13.18 0.38,6.57 -4.35,12.42 -11,13.88 -2.9,-4.33 1.55,-6.36 3,-9.87 7.9,-2.45 -3.21,-17.02 -8.52,-8.34 -7.38,-16 -19.14,6.63 -19.58,15.23 2.53,5.01 -6,13.31 -7.3,5.29 -10.55,3.58 8.68,-10.83 -5.91,-7.44 6.83,-4.46 6.89,-8.06 12.15,-12.74 9.74,0.33 5.75,-18.69 -3.04,-10.15 -4.58,-4.52 -12.56,3.99 -14.07,-4.84 10.4,0.93 -6.04,-4.49 2.02,-6.28 -1.13,-7.31 -11.86,1.59 -9.64,7.5 -4.76,0.28 5.01,-19.32 -2.72,-8.65 -10.04,4.46 8.77,-14.05 -2.37,-11.59 0.32,5.34 -5.57,5.63 -5.48,0.2 -3.62,5.48 -3.86,20.5 -14.57,16.5 6.07,-3.1 -2.48,-10.33 -3.19,-16.8 -2.12,-2.46 -15.72,0.03 -12.82,-4.87 8.48,3.31 3.48,-11.92 4.8,-16.18 -5.4,1.18 -3.98,8.53 -5.23,12.82 -7.56,4.6 -7.03,-12.52 0.22,-9.8 1.56,-5.75 -2.95,-3.49 -5.98,-1.89 0.92,-10.28 9.91,-16.91 3.33,-24.47 -5.94,0.44 -5.71,-5.54 -4.25,-9.64 -9.62,3.24 0.89,-7.49 -3.65,-11.32 -0.74,-7.76 1.39,-12.77 8.63,-11.64 0.21,-6.21 -10.68,-8.27 -5.73,-14.6 10.38,-1.53 -3.54,-9.2 3.25,-13.87 0.07,-7.44 11.01,-3.37 9.52,-11.51 -0.17,-7.44 7.66,-22.82 -7.06,-30.19 5.09,-3.48 0.7,-10.1 -2.99,-11.93 2.74,-7.76 -3.74,0.46 -6.96,-3.06 2.41,-2.65 4.74,-6.2 2.94,-9.88 4.43,6.09 14.38,-3.56 4.03,-5.08 3.55,-2.95 12,1.95 3.99,-4.95 C 166.66,6.93 153.65,1 161.38,0 m -6.21,118.17 c 0.72,0.72 0.72,0.72 0,0 z"
           inkscape:connector-curvature="0"
           style="fill:#946545;fill-opacity:1;stroke:#946545;stroke-opacity:1" />
      </g>
      <g
         id="#af764ffe"
         style="stroke:#af764f;stroke-opacity:1">
        <path
           id="path2994"
           d="m 164.79,0 31.84,2.3829499 C 218.49126,6.6374715 240.36,13.11 259.06,26.7 c -5.1,5.01 -12.92,-2.06 -18.78,-4.02 -4.74,-6.16 -14.56,-2.84 -18.41,-9.57 -9.13,-2.5 -9.54,2.04 -10.88,9.74 13.79,-1.01 3.84,10 -3,7.12 2.86,6.89 -4.2,6.99 -8.23,3.41 -8.2,4.15 -14.42,16.54 -4.4,24.17 5.91,2.31 -2.64,15.72 3.69,11.57 5.3,3.03 8.52,8.82 14.08,11.67 -10.11,-1.37 -4.03,16.06 -12.94,15.44 -1.87,4.25 -1.99,9.03 -2.23,13.59 5.79,-4.05 2.27,8.89 7.07,4.25 2.78,-1.54 13.06,-8.75 8.35,-1.7 -0.37,18.82 12.42,-9.75 21.64,0.74 -5.9,-10.5 17.1,-9.35 13.41,0.7 5.59,5.92 -0.5,11.44 -2.08,17.47 -7.11,10.28 7.03,13.92 11.61,19.76 -3.73,7 -1.9,17.01 1.01,22.88 6.23,-6.66 5.4,9.38 12.07,8.24 -7.34,3.66 8.91,14.15 0.09,15.03 0.74,6.26 7.31,-4.76 11.7,-0.16 0.46,-11.6 6.51,13.76 -0.89,3.9 0.44,6.72 10.96,11.47 5.05,18.05 17.22,-9.18 5.4,7.75 5.67,15.6 4.66,-3.25 2.03,7.28 5.11,3.19 -3.37,-8.91 11.95,1.36 8.33,-8.75 3.03,0.45 2.52,5.32 4.91,7.06 -7.75,-3.64 -4.53,10.7 -11.86,10.97 3.49,-10.32 -8.45,-5.56 -3.43,-2.17 -14.33,12.16 -13.89,-6.35 -17.97,-14.76 -7.22,1.9 -6.44,-7.16 -4.74,-12.13 -6.85,3.42 -1.51,-3.73 -2.87,-4.92 -3.81,6.61 -8.33,-8.54 -1.87,-7.84 5.61,-7.76 -5.19,-6.19 -9.76,-9.47 1.13,-7.39 -10.72,-4.9 -8.17,-14.05 -4.3,-8.66 -9.36,13.46 -9.67,-0.34 -5.02,-6.29 -14.25,-1.69 -8.81,5.43 -8.51,3.78 -3.61,-10.84 -13.69,-2.56 -6.69,9.36 -18.53,-11.34 -5.06,-7.46 -2.88,-1.73 0.8,-22.76 -6.92,-15.05 -2.09,-3.39 -5.49,-10.24 -9.42,-6.98 -4.03,4.55 -1.72,-6.85 -6.53,-1.51 -8.45,7.99 -6.22,-10.45 -11.29,-13.17 -10.99,-2.07 2.57,-13.26 2.63,-16.78 0.24,-8.38 3.24,2.35 6.71,-4 2.98,-4.98 -6.16,-0.65 -2.47,-5.38 5.53,-6.94 2.7,-19.6 12.19,-23.11 -3.43,-3.33 -5.47,-10.62 -11.81,-7.94 -1.75,-3.3 -1.32,-9.21 0.6,-12.56 -4.43,-2.55 -8.01,-8.26 -8.68,-13.08 5.71,-2.18 7.61,-8.37 6.53,-13.91 -2.34,-5.16 -12.22,-8.14 -8.92,-14.57 7.08,0.23 4.06,-12.25 -0.87,-5.85 -6.84,3.54 -1.66,-4.97 2.06,-6.05 C 170.2,11.57 172.6,0.97 164.79,0 m 19.38,55.17 c 0.72,0.72 0.72,0.72 0,0 m 84.97,150.97 c -0.97,4.68 4.68,-0.97 0,0 z"
           inkscape:connector-curvature="0"
           style="fill:#af764f;stroke:#af764f;stroke-opacity:1"
           sodipodi:nodetypes="ccccccccccccccccccccccccccccccccccccccccccccccccccccccccccccc" />
      </g>
      <g
         id="#6a4b38ff">
        <path
           id="path2997"
           d="m 135.17,4.06 c 3.03,-1.53 6.58,-1.89 9.94,-2.08 -8.35,7.04 5.66,17.23 -4.3,25.9 -3.39,-2.64 -7.55,2.5 -2.8,4.12 8.28,2.4 9.51,13.76 2.97,18.99 -4.8,3.77 3.83,6.09 2.81,9.7 -8.95,2.81 1.12,11.13 1.81,17.52 -10.54,2.58 -9.96,19.72 -13.02,29.47 -4.35,7.29 9.12,8.37 -0.46,13.5 2.79,6.86 4.33,13.81 0.86,20.9 7.34,-4.46 3.56,3.18 10.03,-1.16 2.03,4.66 -10.22,6.88 -5,10.08 5.57,2.61 -6.76,2.31 -1.87,8.72 6.22,0.78 3.21,8.3 6.75,12.15 -7.7,3.51 4.77,5.26 2.16,12.12 3.84,5.76 -5.88,1.52 -5.07,6.06 7.25,-3.57 6.71,8.06 3.22,10.52 -7.35,-1.34 11.48,8.11 1.74,7.6 1.64,9.2 14.66,8.97 16.26,17.76 3.56,-1.38 14.44,0.95 6.08,-2.28 -4.23,-10.86 17.15,-9.3 20.8,-2.73 1.38,-4.47 4.37,-7.03 8.71,-8.78 5.77,7.44 -9.85,11.76 -3.8,19.87 4.76,5.67 -0.42,21.69 -6.4,10.46 -4.39,7.57 5.2,31.95 19.56,27.6 -2.63,-6.64 8.93,-14.92 -2.99,-17.36 3.27,-3.29 4.01,-14.51 11.18,-11.03 4.68,6.67 -13.92,12.06 -2.49,10.36 -4.53,13.45 20.31,6.24 11.18,1.92 1.58,-2.62 7.21,-3.14 6.17,-7.81 7.62,1.14 -3.75,-12.74 10.82,-7.27 1.76,1.68 2.04,8.68 4.75,5.92 5.09,-1.21 -1.17,-9.53 -4.75,-5.92 -6.59,-3.25 0.84,-21.48 6.22,-7.94 -4.34,-3.37 -3.29,3.86 0,0 1.65,8.49 10.1,-2.7 9.97,4.17 -1.45,3.51 -5.9,5.54 -3,9.87 6.65,-1.46 11.38,-7.31 11,-13.88 4.76,3.81 15.65,4.82 10.14,13.18 -1.39,3.46 3.37,1.06 4.53,-0.26 2.79,12.49 16.83,2.45 21.79,5.28 3.7,3.78 -3.36,5.8 -2.52,9.93 -4,5.07 -6.88,1.16 -3.19,-3.31 -3.9,0.48 -10.04,2.5 -8.13,7.95 -3.6,5.98 -11.69,8.22 -17.7,13.3 1.77,2.62 3.62,5.86 2.35,9.1 -0.41,3.8 6.74,-1.2 5.23,3.43 -3.14,2.31 -3.99,9.63 1.5,6.47 -11.83,10.06 -25.11,18.41 -39.05,25.21 -3.08,-3.8 -8.52,-1.46 -12.09,-4.55 -0.24,-4.5 3.12,-8.24 2.99,-12.67 -9.04,2.29 -12.75,-11.95 -20.84,-7.68 -7.72,-1.19 -14.97,-6.19 -9.11,-13.35 -7.13,2.77 -6.02,-2.22 -6.59,-6.47 -3.97,-12.57 -13.12,-23.01 -26.46,-22.85 7.83,-4.28 3.11,-4.77 -3.91,-8.74 -1.49,5.05 -4.42,1.65 -4.39,-2.03 -7,3.43 -16.28,-3.16 -7.77,-8.87 -5.9,-3.73 -1.09,3.91 -6.69,1.41 -5.91,4.09 -15.05,-8.07 -8.56,-14.57 2.58,-8.5 -7.56,-5.61 -3.71,-12.83 -10.51,2.56 -10.08,-12.43 -7.75,-18.44 -5.45,-4.32 -8.61,-11.38 -0.55,-14.98 1.77,-15 -6.72,-27.01 -2.83,-42.57 -15.99,-13.58 7.7,-31.85 -7.03,-46.12 -5.72,-6.54 1.41,-12.16 3.46,-18.81 -0.16,-12.02 9.35,-18.51 12.61,-29.09 -7.39,-2.64 -17,-3.59 -12.08,-14.22 7.34,0 16.26,-6.07 18.21,-13.84 -10.51,2.02 -8.01,-3.85 -0.9,-6.05 z"
           inkscape:connector-curvature="0"
           style="fill:#6a4b38;fill-opacity:1;stroke:#6a4b38;stroke-opacity:1" />
      </g>
      <g
         id="#543e2fff">
        <path
           id="path3000"
           d="m 119.15,8.06 c 4.96,-2.48 10.56,-3.44 16.02,-4 -7.11,2.2 -9.61,8.07 0.9,6.05 -1.95,7.77 -10.87,13.84 -18.21,13.84 -4.92,10.63 4.69,11.58 12.08,14.22 -3.26,10.58 -12.77,17.07 -12.61,29.09 -2.05,6.65 -9.18,12.27 -3.46,18.81 14.73,14.27 -8.96,32.54 7.03,46.12 -3.89,15.56 4.6,27.57 2.83,42.57 -8.06,3.6 -4.9,10.66 0.55,14.98 -2.33,6.01 -2.76,21 7.75,18.44 -3.85,7.22 6.29,4.33 3.71,12.83 -6.49,6.5 2.65,18.66 8.56,14.57 5.6,2.5 0.79,-5.14 6.69,-1.41 -8.51,5.71 0.77,12.3 7.77,8.87 -0.03,3.68 2.9,7.08 4.39,2.03 7.02,3.97 11.74,4.46 3.91,8.74 13.34,-0.16 22.49,10.28 26.46,22.85 0.57,4.25 -0.54,9.24 6.59,6.47 -5.86,7.16 1.39,12.16 9.11,13.35 8.09,-4.27 11.8,9.97 20.84,7.68 0.13,4.43 -3.23,8.17 -2.99,12.67 3.57,3.09 9.01,0.75 12.09,4.55 -8.25,3.31 -16.4,6.94 -25.04,9.09 3.16,-6.98 -10.96,-8.25 -6.87,-14.15 8.29,-1.61 -8.11,-0.97 -1.62,-4.77 6.4,-3.87 -3.27,-6.08 -6.76,-4.59 4.6,-6.73 16.35,3.71 18.17,-7.99 -10.78,3.8 -23.33,2.69 -33.33,-1.39 -5.06,-6.02 6.38,-5.02 7.22,-10.41 -4.85,-4.06 -12.11,6.7 -10.98,-5.13 -9.15,-5.35 -17.63,3.11 -25.94,2.99 6.47,-1.25 -2.17,-8.62 2.93,-13.09 -0.3,-9 -10.86,1.18 -11.91,-4.94 -0.27,14.95 -11.09,-11.36 -1.28,-8.05 1.6,-6.12 -9.86,-3.22 -7.34,-9.28 4.99,-10.42 -9.34,-4.82 -7.57,-12.69 -8.81,4.22 -0.8,-10.95 -7.77,-10.22 -6.24,-0.16 -6.7,-7.69 -6.7,-12.09 -9.63,-6.2 -3.03,-17.38 -9.42,-24.66 -5.32,-10.7 -7.37,-18.57 -4.69,-28.77 2.56,-2.71 7.03,-8.8 2.09,-11.16 -0.78,5.26 -10.69,3.94 -4.35,-0.08 7.13,-5.58 -8.35,-6.95 -0.94,-11.94 2.56,-5.45 -0.61,-13.84 3.89,-18.96 -7.53,-6.36 -17.07,-7.23 -9.18,-16.4 C 90.81,97.66 91.22,92.56 94.98,88.94 88.05,71.13 87.02,44.11 107.95,41.81 97.1,32.15 104.77,13.46 119.15,8.06 z"
           inkscape:connector-curvature="0"
           style="fill:#543e2f;fill-opacity:1" />
      </g>
      <g
         id="#403128ff"
         style="stroke:#403128;stroke-opacity:1;fill:#403128;fill-opacity:1">
        <path
           id="path3003"
           d="m 100.89,14.76 c 5.67,-3.04 11.92,-5.63 18.26,-6.7 -14.38,5.4 -22.05,24.09 -11.2,33.75 -20.93,2.3 -19.9,29.32 -12.97,47.13 -3.76,3.62 -4.17,8.72 -3.21,13.76 -7.89,9.17 1.65,10.04 9.18,16.4 -4.5,5.12 -1.33,13.51 -3.89,18.96 -7.41,4.99 8.07,6.36 0.94,11.94 -6.34,4.02 3.57,5.34 4.35,0.08 4.94,2.36 0.47,8.45 -2.09,11.16 -2.68,10.2 -0.63,18.07 4.69,28.77 6.39,7.28 -0.21,18.46 9.42,24.66 0,4.4 0.46,11.93 6.7,12.09 6.97,-0.73 -1.04,14.44 7.77,10.22 -1.77,7.87 12.56,2.27 7.57,12.69 -2.52,6.06 8.94,3.16 7.34,9.28 -9.81,-3.31 1.01,23 1.28,8.05 1.05,6.12 11.61,-4.06 11.91,4.94 -5.1,4.47 3.54,11.84 -2.93,13.09 8.31,0.12 16.79,-8.34 25.94,-2.99 -1.13,11.83 6.13,1.07 10.98,5.13 -0.84,5.39 -12.28,4.39 -7.22,10.41 10,4.08 22.55,5.19 33.33,1.39 -1.82,11.7 -13.57,1.26 -18.17,7.99 3.49,-1.49 13.16,0.72 6.76,4.59 -6.49,3.8 9.91,3.16 1.62,4.77 -4.09,5.9 10.03,7.17 6.87,14.15 -5.94,1.58 -11.96,2.89 -18.02,3.94 -1.89,-11 -13.51,-10.65 -20.19,-14.4 1.39,-9.56 -9.42,-0.19 -11,-8.94 -5,-2.23 -12.83,-6.57 -16.87,-11.94 8.53,-6.13 -10.46,-1.06 -3.07,-8.04 -8.69,-1.51 -7.42,-12.53 -16.63,-13.47 -0.42,-5.7 -9.42,-1.1 -7.87,-7.31 -2.43,-5.11 4.01,-3.44 6.6,-1.44 5.52,-3.44 -14.62,-9.28 -5.01,-7.86 -4.02,-5.42 -7.55,-11.22 -11.06,-17.01 5.53,-8.29 -10.49,-4.34 -6.3,-13.96 -9.85,-14.8 -9.11,-26.98 -18.27,-42.76 -2.25,-12.03 -5.1,-25.72 -4.59,-38.21 -3.99,-3.26 5,-12.69 -3.04,-8.26 -7.8,5.78 4.37,-6.15 -2.57,-5.06 -2.43,-10.48 1.13,-21.03 3.45,-30.46 -2.34,-2.36 -2.29,-8.89 -6.73,-6.31 6.09,-12.51 -1.06,-27.93 6.69,-41.67 -5.47,-9.06 6.86,-12.46 7.73,-21 -0.52,-9.96 8.04,-14.82 13.52,-21.55 z"
           inkscape:connector-curvature="0"
           style="fill:#403128;stroke:#403128;stroke-opacity:1;fill-opacity:1" />
      </g>
      <g
         id="#cd8858ff"
         style="stroke:#cd8858;stroke-opacity:1">
        <path
           id="path3006"
           d="m 210.99,22.85 c 1.34,-7.7 1.75,-12.24 10.88,-9.74 3.85,6.73 13.67,3.41 18.41,9.57 5.86,1.96 13.68,9.03 18.78,4.02 9.65,6.55 19.45,13.12 27.05,22.1 -0.05,2.53 6.21,7.95 1.1,8.03 -6.01,-10.65 -17.75,-16.49 -29.05,-19.76 -2.58,3 3.68,7.85 -2.09,7.92 -1.32,-5.15 -12.19,-2.49 -13.4,3.7 -10,2.83 -23.96,0.19 -31.31,8.56 0.31,8.03 15.12,1.97 12.7,7.81 -6.48,2.1 1.97,1.08 1.13,5.65 7.38,-2.54 2.41,9.64 8.81,9.25 4.36,-0.47 1.02,6.22 -2.06,3.22 -1.72,4.51 7.79,8.68 2.09,11.81 -9.07,10.07 10.38,8.11 13.18,-0.72 2.91,-0.78 6.77,-0.54 8.36,-3.61 2.28,-5.58 15.53,2.02 11.42,-5.67 4.15,-0.44 3.88,5.76 9.04,4 0.25,-3.96 -6.12,-2.18 -3.1,-6.76 -5.67,0.96 -7.76,-9.41 -1.16,-8.08 1.25,3.3 7.64,6.99 5.27,0.87 6.82,-1.32 5.16,7.76 1.97,11.03 3.87,7.97 7.67,16.95 -0.03,20.87 -9.26,-2.15 -8.3,7.11 -9.23,13.86 -6.73,2.89 0.41,12 -6.14,14.89 -2.59,8.6 9.41,0.17 5.65,8.36 3.19,4.52 6.58,16.18 12.12,9.27 3.56,-6.65 0.39,6.31 4.68,6.57 3.6,-0.17 1.79,4.36 -0.9,4.45 4.85,7.21 4.46,15.87 7.03,23.58 6.71,-1.44 3.56,-15.84 12.47,-14.5 7.7,-2.34 11.17,16.18 1.27,8.62 1.31,6.79 -0.87,18.8 9.15,16.93 -4.65,-3.62 -5.3,-10.77 -0.69,-14.82 3.55,3.76 4.14,9.37 1.79,13.87 4.92,6.44 -6.55,16.33 4.54,17.86 2.52,-8.81 4.42,3.78 -1.66,4.31 3.46,2.7 -0.67,6.15 -2.06,8.85 2.72,-1.32 5.52,-0.58 8.24,0.31 -0.25,0.46 -0.74,1.37 -0.98,1.83 -4.94,0.75 -8.77,5.61 -13.25,4.92 -2.39,-1.74 -1.88,-6.61 -4.91,-7.06 3.62,10.11 -11.7,-0.16 -8.33,8.75 -3.08,4.09 -0.45,-6.44 -5.11,-3.19 -0.27,-7.85 11.55,-24.78 -5.67,-15.6 5.91,-6.58 -4.61,-11.33 -5.05,-18.05 7.4,9.86 1.35,-15.5 0.89,-3.9 -4.39,-4.6 -10.96,6.42 -11.7,0.16 8.82,-0.88 -7.43,-11.37 -0.09,-15.03 -6.67,1.14 -5.84,-14.9 -12.07,-8.24 -2.91,-5.87 -4.74,-15.88 -1.01,-22.88 -4.58,-5.84 -18.72,-9.48 -11.61,-19.76 1.58,-6.03 7.67,-11.55 2.08,-17.47 3.69,-10.05 -19.31,-11.2 -13.41,-0.7 -9.22,-10.49 -22.01,18.08 -21.64,-0.74 4.71,-7.05 -5.57,0.16 -8.35,1.7 -4.8,4.64 -1.28,-8.3 -7.07,-4.25 0.24,-4.56 0.36,-9.34 2.23,-13.59 8.91,0.62 2.83,-16.81 12.94,-15.44 -5.56,-2.85 -8.78,-8.64 -14.08,-11.67 -6.33,4.15 2.22,-9.26 -3.69,-11.57 -10.02,-7.63 -3.8,-20.02 4.4,-24.17 4.03,3.58 11.09,3.48 8.23,-3.41 6.84,2.88 16.79,-8.13 3,-7.12 z"
           inkscape:connector-curvature="0"
           style="fill:#cd8858;stroke:#cd8858;stroke-opacity:1" />
      </g>
      <g
         id="#2a2623fe">
        <path
           id="path3009"
           d="M 0,159.4 C 3.79,97.85 43.21,38.51 100.89,14.76 95.41,21.49 86.85,26.35 87.37,36.31 c -0.87,8.54 -13.2,11.94 -7.73,21 -7.75,13.74 -0.6,29.16 -6.69,41.67 4.44,-2.58 4.39,3.95 6.73,6.31 -2.32,9.43 -5.88,19.98 -3.45,30.46 6.94,-1.09 -5.23,10.84 2.57,5.06 8.04,-4.43 -0.95,5 3.04,8.26 -0.51,12.49 2.34,26.18 4.59,38.21 9.16,15.78 8.42,27.96 18.27,42.76 -4.19,9.62 11.83,5.67 6.3,13.96 3.51,5.79 7.04,11.59 11.06,17.01 -9.61,-1.42 10.53,4.42 5.01,7.86 -2.59,-2 -9.03,-3.67 -6.6,1.44 -1.55,6.21 7.45,1.61 7.87,7.31 9.21,0.94 7.94,11.96 16.63,13.47 -7.39,6.98 11.6,1.91 3.07,8.04 4.04,5.37 11.87,9.71 16.87,11.94 1.58,8.75 12.39,-0.62 11,8.94 6.68,3.75 18.3,3.4 20.19,14.4 -5.98,1.65 -12.89,0.23 -18.5,2.59 l -18.22,0 C 76.06,333.42 3.71,260.71 0,177.6 l 0,-18.2 z"
           inkscape:connector-curvature="0"
           style="fill:#2a2623;stroke:#2a2623;stroke-opacity:1;fill-opacity:1;stroke-width:1.00021602000000010;stroke-miterlimit:4;stroke-dasharray:none" />
      </g>
      <g
         id="#ea9c64ff">
        <path
           id="path3012"
           d="m 258.16,37.07 c 11.3,3.27 23.04,9.11 29.05,19.76 5.11,-0.08 -1.15,-5.5 -1.1,-8.03 30.89,28.95 48.21,70.86 50.89,112.58 l 0,14.24 c -1.47,18.13 -4.97,36.59 -11.76,53.71 -2.72,-0.89 -5.52,-1.63 -8.24,-0.31 1.39,-2.7 5.52,-6.15 2.06,-8.85 6.08,-0.53 4.18,-13.12 1.66,-4.31 -11.09,-1.53 0.38,-11.42 -4.54,-17.86 2.35,-4.5 1.76,-10.11 -1.79,-13.87 -4.61,4.05 -3.96,11.2 0.69,14.82 -10.02,1.87 -7.84,-10.14 -9.15,-16.93 9.9,7.56 6.43,-10.96 -1.27,-8.62 -8.91,-1.34 -5.76,13.06 -12.47,14.5 -2.57,-7.71 -2.18,-16.37 -7.03,-23.58 2.69,-0.09 4.5,-4.62 0.9,-4.45 -4.29,-0.26 -1.12,-13.22 -4.68,-6.57 -5.54,6.91 -8.93,-4.75 -12.12,-9.27 3.76,-8.19 -8.24,0.24 -5.65,-8.36 6.55,-2.89 -0.59,-12 6.14,-14.89 0.93,-6.75 -0.03,-16.01 9.23,-13.86 7.7,-3.92 3.9,-12.9 0.03,-20.87 3.19,-3.27 4.85,-12.35 -1.97,-11.03 2.37,6.12 -4.02,2.43 -5.27,-0.87 -6.6,-1.33 -4.51,9.04 1.16,8.08 -3.02,4.58 3.35,2.8 3.1,6.76 -5.16,1.76 -4.89,-4.44 -9.04,-4 4.11,7.69 -9.14,0.09 -11.42,5.67 -1.59,3.07 -5.45,2.83 -8.36,3.61 -2.8,8.83 -22.25,10.79 -13.18,0.72 5.7,-3.13 -3.81,-7.3 -2.09,-11.81 3.08,3 6.42,-3.69 2.06,-3.22 -6.4,0.39 -1.43,-11.79 -8.81,-9.25 0.84,-4.57 -7.61,-3.55 -1.13,-5.65 2.42,-5.84 -12.39,0.22 -12.7,-7.81 7.35,-8.37 21.31,-5.73 31.31,-8.56 1.21,-6.19 12.08,-8.85 13.4,-3.7 5.77,-0.07 -0.49,-4.92 2.09,-7.92 z"
           inkscape:connector-curvature="0"
           style="fill:#ea9c64" />
      </g>
      <g
         id="#a36b47ff">
        <path
           id="path3015"
           d="m 184.17,55.17 c 0.72,0.72 0.72,0.72 0,0 z"
           inkscape:connector-curvature="0"
           style="fill:#a36b47" />
      </g>
      <g
         id="#8b5e3fff">
        <path
           id="path3018"
           d="m 155.17,118.17 c 0.72,0.72 0.72,0.72 0,0 z"
           inkscape:connector-curvature="0"
           style="fill:#8b5e3f" />
      </g>
      <g
         id="#a36c45ff">
        <path
           id="path3021"
           d="m 269.14,206.14 c 4.68,-0.97 -0.97,4.68 0,0 z"
           inkscape:connector-curvature="0"
           style="fill:#a36c45" />
      </g>
      <g
         id="#77523dff">
        <path
           id="path3024"
           d="m 246.24,230.94 c -4.34,-3.37 -3.29,3.86 0,0 z"
           inkscape:connector-curvature="0"
           style="fill:#77523d" />
      </g>
      <g
         id="#a26f4afd">
        <path
           id="path3027"
           d="m 311.01,236.08 c 4.48,0.69 8.31,-4.17 13.25,-4.92 -9.25,25.21 -26.21,47.1 -46.05,65.01 -5.49,3.16 -4.64,-4.16 -1.5,-6.47 1.51,-4.63 -5.64,0.37 -5.23,-3.43 1.27,-3.24 -0.58,-6.48 -2.35,-9.1 6.01,-5.08 14.1,-7.32 17.7,-13.3 -1.91,-5.45 4.23,-7.47 8.13,-7.95 -3.69,4.47 -0.81,8.38 3.19,3.31 4.45,-3.55 8.69,-12.01 14.89,-10.4 -1.63,-3.83 1.43,-7.14 3.93,-9.72 -2.08,-2.43 -7.39,2.38 -5.96,-3.03 z"
           inkscape:connector-curvature="0"
           style="fill:#a26f4a" />
      </g>
      <g
         id="#7a4f41ff">
        <path
           id="path3030"
           d="m 240.02,238.88 c 3.58,-3.61 9.84,4.71 4.75,5.92 -2.71,2.76 -2.99,-4.24 -4.75,-5.92 z"
           inkscape:connector-curvature="0"
           style="fill:#7a4f41" />
      </g>
    </g>
  </g>
</svg>
