<?xml version="1.0" encoding="UTF-8" standalone="no"?>
<!-- Created with Inkscape (http://www.inkscape.org/) -->

<svg
   xmlns:dc="http://purl.org/dc/elements/1.1/"
   xmlns:cc="http://creativecommons.org/ns#"
   xmlns:rdf="http://www.w3.org/1999/02/22-rdf-syntax-ns#"
   xmlns:svg="http://www.w3.org/2000/svg"
   xmlns="http://www.w3.org/2000/svg"
   xmlns:sodipodi="http://sodipodi.sourceforge.net/DTD/sodipodi-0.dtd"
   xmlns:inkscape="http://www.inkscape.org/namespaces/inkscape"
   width="500"
   height="500"
   id="svg2"
   version="1.1"
   inkscape:version="0.48.2 r9819"
   sodipodi:docname="nuwe_turret.svg">
  <defs
     id="defs4" />
  <sodipodi:namedview
     id="base"
     pagecolor="#ffffff"
     bordercolor="#666666"
     borderopacity="1.0"
     inkscape:pageopacity="0.0"
     inkscape:pageshadow="2"
     inkscape:zoom="5.6"
     inkscape:cx="-39.513722"
     inkscape:cy="528.23412"
     inkscape:document-units="px"
     inkscape:current-layer="layer2"
     showgrid="false"
     inkscape:window-width="1280"
     inkscape:window-height="962"
     inkscape:window-x="-8"
     inkscape:window-y="-8"
     inkscape:window-maximized="1" />
  <metadata
     id="metadata7">
    <rdf:RDF>
      <cc:Work
         rdf:about="">
        <dc:format>image/svg+xml</dc:format>
        <dc:type
           rdf:resource="http://purl.org/dc/dcmitype/StillImage" />
        <dc:title></dc:title>
      </cc:Work>
    </rdf:RDF>
  </metadata>
  <g
     inkscape:groupmode="layer"
     id="layer2"
     inkscape:label="bo_op"
     style="display:inline"
     transform="translate(0,-552.36218)">
    <path
       style="fill:#696771;fill-opacity:1;stroke:none;display:inline"
       d="m -8.8541526,552.4937 2.2728435,4.54569 4.293148,2.52538 4.04061,-0.25254 3.030457,-1.51523 2.525382,-3.53553 0.757614,-3.03046 -0.505076,-44.44671 6.0162731,0.0153 0.01532,-5.52652 -27.749871,-0.0446 -0.03064,5.80838 2.571338,0.0153 0.014,3.72811 2.5393864,-0.0293 0.104604,18.33068 z"
       id="path3000"
       inkscape:connector-curvature="0"
       sodipodi:nodetypes="ccccccccccccccccc" />
    <path
       style="fill:#6a6871;fill-opacity:1;stroke:none"
       d="m -6.643197,501.33187 0.020735,-3.1674 -3.0357146,0 0,-10.44643 10.8035718,0.0893 0.089286,-2.14285 -2.05357137,0 0.2678571,1.33928 -9.19642853,0.0893 0.08929,-1.69643 -1.9642864,0 -0.08929,16.07143 z"
       id="path3030"
       inkscape:connector-curvature="0"
       sodipodi:nodetypes="ccccccccccccc" />
    <path
       style="fill:#4c5659;fill-opacity:1;stroke:none"
       d="m -8.5867476,515.75376 -1.7857154,0.26786 -2.5,1.25 -2.232142,1.875 -1.517858,2.23214 -0.803571,3.30357 0.267857,4.46429 1.607143,2.32142 1.517857,2.14286 2.589286,1.875 0.892857,0.0893 0,-6.42857 1.6964294,0 -0.08929,12.23214 -1.8750004,-0.35714 0,-3.83929 -2.142857,-0.80357 -2.232143,-1.96428 -1.875,-2.14286 -1.428572,-2.67857 -0.357142,-3.39286 0.357142,-3.66071 1.428572,-2.67857 2.232143,-2.5 2.410714,-1.875 2.5892864,-1.33929 1.071428,-0.0893 z"
       id="path3800"
       inkscape:connector-curvature="0" />
    <path
       style="fill:#4a5256;fill-opacity:1;stroke:none"
       d="m 7.5933216,507.08973 -19.2993616,0 0,0.94702 19.2384804,0.12627 z"
       id="path3802"
       inkscape:connector-curvature="0" />
    <path
       style="fill:#4c5659;fill-opacity:1;stroke:none"
       d="m -1.9796047,551.69126 0.8035714,-1.07143 c 0,0 1.11607143,-0.3125 1.60714293,-0.26786 0.4910714,0.0446 -0.089286,0.0446 -0.089286,0.0446 l 1.47321417,0.44643 0.4464286,1.83036 -1.0714286,1.83036 -2.3660714,-0.35714 -0.7589286,-1.29465 z"
       id="path3804"
       inkscape:connector-curvature="0" />
  </g>
</svg>
